<svg width="53" height="21" viewBox="0 0 53 21" fill="none" xmlns="http://www.w3.org/2000/svg">
<path d="M1.63086 20.3011V18.9795H2.86474V20.3011H3.51415V17.2778H2.86474V18.4673H1.63086V17.2778H0.981445V20.3011H1.63086Z" fill="#333333"/>
<path d="M9.22912 17.2778V18.9134C9.22912 19.4255 9.21288 19.8881 8.57971 19.8881C7.94653 19.8881 7.93029 19.4255 7.93029 18.9134V17.2778H7.26465V19.1777C7.26465 19.9872 7.84912 20.3672 8.57971 20.3672C9.31029 20.3672 9.89476 19.9707 9.89476 19.1777V17.2778H9.22912Z" fill="#333333"/>
<path d="M15.6582 19.1942V19.8054C15.4958 19.855 15.3335 19.9046 15.09 19.9046C14.473 19.9046 14.2133 19.475 14.2133 18.7977C14.2133 18.1203 14.4568 17.6908 15.025 17.6908C15.4147 17.6908 15.642 17.9386 15.642 18.2029H16.2914C16.2914 17.6082 15.7718 17.2117 14.9763 17.2117C14.3594 17.2117 13.5151 17.5916 13.5151 18.7811C13.5151 19.9872 14.3269 20.3506 15.0413 20.3506C15.6582 20.3506 16.0641 20.2185 16.2914 20.1193V18.682H15.0575V19.1776H15.6582V19.1942Z" fill="#333333"/>
<path d="M45.7582 18.1204C45.7582 17.5091 45.1575 17.1787 44.6055 17.1787C44.0535 17.1787 43.4365 17.5256 43.4365 18.1204C43.4365 18.5499 43.745 18.7812 44.1671 18.9134C44.297 18.9464 44.5243 19.029 44.6379 19.0621C45.0438 19.1777 45.1899 19.2934 45.1899 19.5412C45.1899 19.8716 44.8652 19.9873 44.6866 19.9873C44.1996 19.9873 44.021 19.7064 44.021 19.3595H43.3716C43.3716 20.0368 43.8586 20.4168 44.6704 20.4168C45.3036 20.4168 45.8718 20.0699 45.8718 19.4586C45.8718 18.9795 45.5146 18.7151 45.06 18.583C44.8977 18.5334 44.7516 18.5004 44.5892 18.4508C44.2321 18.3352 44.0697 18.236 44.0697 18.0213C44.0697 17.8065 44.2321 17.6248 44.573 17.6248C44.9302 17.6248 45.0925 17.8561 45.0925 18.1534H45.7582V18.1204Z" fill="#333333"/>
<path d="M52.1224 18.1204C52.1224 17.5091 51.5217 17.1787 50.9697 17.1787C50.4177 17.1787 49.8008 17.5256 49.8008 18.1204C49.8008 18.5499 50.1093 18.7812 50.5314 18.9134C50.6613 18.9464 50.8885 19.029 51.0022 19.0621C51.4081 19.1777 51.5542 19.2934 51.5542 19.5412C51.5542 19.8716 51.2295 19.9873 51.0509 19.9873C50.5638 19.9873 50.3853 19.7064 50.3853 19.3595H49.7358C49.7358 20.0368 50.2229 20.4168 51.0347 20.4168C51.6678 20.4168 52.2361 20.0699 52.2361 19.4586C52.2361 18.9795 51.8789 18.7151 51.4243 18.583C51.262 18.5334 51.1158 18.5004 50.9535 18.4508C50.5963 18.3352 50.434 18.236 50.434 18.0213C50.434 17.8065 50.5963 17.6248 50.9373 17.6248C51.2944 17.6248 51.4568 17.8561 51.4568 18.1534H52.1224V18.1204Z" fill="#333333"/>
<path d="M21.454 20.4004C22.4768 20.4004 22.9314 19.7065 22.9314 18.7978C22.9314 17.8892 22.4768 17.1953 21.454 17.1953C20.4312 17.1953 19.9766 17.8892 19.9766 18.7978C19.9766 19.7065 20.4312 20.4004 21.454 20.4004ZM21.454 17.6579C22.1034 17.6579 22.2333 18.2526 22.2333 18.7813C22.2333 19.31 22.1034 19.9047 21.454 19.9047C20.8046 19.9047 20.6747 19.31 20.6747 18.7813C20.6747 18.2692 20.8046 17.6579 21.454 17.6579Z" fill="#333333"/>
<path d="M31.6986 20.3343C32.2993 20.3343 32.8513 20.0369 32.8513 19.4752C32.8513 19.0126 32.4941 18.7483 32.137 18.7152C32.3805 18.6822 32.7052 18.4179 32.7052 18.0379C32.7052 17.4927 32.2993 17.2449 31.6661 17.2449H30.3511V20.3343H31.6986ZM31.0005 19.8552V18.963H31.585C31.8772 18.963 32.1207 19.0456 32.1207 19.3926C32.1207 19.723 31.861 19.8386 31.585 19.8386H31.0005V19.8552ZM31.0005 18.517V17.724H31.6012C31.861 17.724 32.0233 17.9057 32.0233 18.1205C32.0233 18.3518 31.8122 18.5005 31.5687 18.5005H31.0005V18.517Z" fill="#333333"/>
<path d="M38.0952 20.4168C39.118 20.4168 39.5889 19.7064 39.5889 18.7978C39.5889 17.8726 39.118 17.1787 38.0952 17.1787C37.0724 17.1787 36.6016 17.8891 36.6016 18.7978C36.6016 19.7064 37.0724 20.4168 38.0952 20.4168ZM38.0952 17.6413C38.7609 17.6413 38.8907 18.236 38.8907 18.7812C38.8907 19.3264 38.7609 19.9212 38.0952 19.9212C37.4296 19.9212 37.2997 19.3264 37.2997 18.7812C37.2997 18.2526 37.4296 17.6413 38.0952 17.6413Z" fill="#333333"/>
<path d="M40.8227 10.207C40.9526 11.76 40.287 14.6676 35.9521 14.8494C34.0364 14.932 31.6336 14.3207 30.6757 13.8746V10.1409H31.1465C31.2439 10.6035 32.1531 14.0564 35.319 14.2216C37.1535 14.3042 38.5498 13.5277 38.5823 11.9747C38.631 10.174 36.6665 9.54619 34.8968 8.83579C32.8999 8.02627 30.9679 7.21675 30.6919 5.01948C30.3997 2.44224 32.7213 0.691028 35.4001 0.806674C36.8775 0.872757 38.355 1.23622 39.4914 1.6988V4.85428H39.0206C38.7446 3.13611 37.738 1.51707 35.4326 1.36838C34.0851 1.28578 32.8674 1.79792 32.8674 3.2848C32.8674 4.77167 35.3027 5.38294 37.0724 6.09334C38.8583 6.82025 40.6117 7.8115 40.8227 10.207Z" fill="#333333"/>
<path d="M52.918 10.207C53.0479 11.76 52.3823 14.6676 48.0475 14.8494C46.1317 14.932 43.7289 14.3207 42.771 13.8746V10.1409H43.2418C43.3392 10.6035 44.2484 14.0564 47.4143 14.2216C49.2489 14.3042 50.6451 13.5277 50.6776 11.9747C50.7263 10.174 48.7618 9.54619 46.9922 8.83579C44.9952 8.02627 43.0632 7.21675 42.8035 5.01948C42.495 2.44224 44.8166 0.691028 47.4955 0.806674C48.9729 0.872757 50.4503 1.23622 51.5868 1.6988V4.85428H51.1159C50.8399 3.13611 49.8333 1.51707 47.5279 1.36838C46.1804 1.28578 44.9628 1.79792 44.9628 3.2848C44.9628 4.77167 47.398 5.38294 49.1677 6.09334C50.9536 6.82025 52.707 7.8115 52.918 10.207Z" fill="#333333"/>
<path d="M14.5381 7.86096C14.5381 3.89596 17.6877 0.690918 21.5842 0.690918C25.4807 0.690918 28.6303 3.89596 28.6303 7.86096C28.6303 11.826 25.4807 15.031 21.5842 15.031C17.6877 15.031 14.5381 11.8094 14.5381 7.86096ZM21.5842 14.4197C24.3442 14.3867 25.3021 10.8017 25.3021 7.84443C25.3021 4.87069 24.1007 1.25263 21.5842 1.25263C18.9378 1.23611 17.8663 4.88721 17.8663 7.84443C17.8663 10.8017 18.8242 14.4528 21.5842 14.4197Z" fill="#333333"/>
<path d="M1.53344 13.5276C1.53344 13.9241 1.07885 14.1223 0.656737 14.1223H0.332031V14.6345H7.50803C10.0407 14.6345 12.7358 13.445 12.7683 10.8017C12.8007 7.77834 9.76473 7.24967 8.80685 7.16707C10.3005 6.91926 12.0701 5.64715 11.989 3.82986C11.8916 1.89693 9.87838 0.988281 7.97885 0.988281L0.413208 1.0048V1.51695H0.802854C1.09509 1.51695 1.54968 1.59955 1.54968 2.02909V13.5276H1.53344ZM4.60191 14.0728V7.53053H6.37156C8.36849 7.53053 9.40755 8.96784 9.48873 10.6034C9.60238 12.5529 8.17367 14.0728 6.37156 14.0728H4.60191ZM4.60191 7.00186V1.51695H6.09556C7.55673 1.51695 8.75814 2.45863 8.82308 4.16028C8.88802 5.77932 7.68661 7.00186 6.17673 7.00186H4.60191Z" fill="#333333"/>
</svg>
