<svg width="99" height="9" viewBox="0 0 99 9" fill="none" xmlns="http://www.w3.org/2000/svg">
<path fill-rule="evenodd" clip-rule="evenodd" d="M0.550781 7.62119H1.86677V1.04125H0.550781V0.76709C2.14093 0.76709 3.62142 0.76709 5.21157 0.76709C6.19856 0.76709 7.40488 0.821923 8.28221 1.15092C8.88537 1.42508 9.21437 1.97341 9.21437 2.52174C9.21437 3.07007 8.88537 3.34423 8.39187 3.72806C8.11771 3.89256 7.95321 3.94739 7.56938 4.05706C8.11771 4.11189 8.50154 4.22156 9.04987 4.55055C9.5982 4.93438 9.87236 5.48271 9.87236 5.97621C9.87236 6.57937 9.4337 7.18253 8.66604 7.40186C7.51455 7.84052 6.19856 7.84052 4.93741 7.84052H0.550781V7.62119ZM4.06008 7.62119H4.99224C5.81473 7.62119 6.41789 7.45669 6.91139 7.29219C7.35005 7.07286 7.73388 6.68903 7.73388 5.97621C7.73388 5.15372 7.51455 4.55055 6.58239 4.27639C6.14373 4.16672 4.00525 4.22156 4.00525 4.22156V7.62119H4.06008ZM4.06008 3.89256C5.04707 3.89256 6.14373 3.94739 6.52756 3.78289C7.13072 3.50873 7.35005 3.23457 7.35005 2.46691C7.35005 1.80891 7.13072 1.47992 6.74689 1.31542C6.30823 1.09609 5.54057 1.04125 4.82774 1.04125H4.06008V3.89256ZM38.1113 7.62119H39.4272V1.04125H38.1113V0.76709C39.7014 0.76709 41.2367 0.76709 42.772 0.76709C43.759 0.76709 44.9654 0.821923 45.8427 1.15092C46.5007 1.42508 46.7748 1.97341 46.7748 2.52174C46.7748 3.07007 46.4458 3.34423 45.9524 3.72806C45.6782 3.89256 45.5137 3.94739 45.1299 4.05706C45.6782 4.11189 46.062 4.22156 46.6652 4.55055C47.2135 4.93438 47.4328 5.48271 47.4328 5.97621C47.4328 6.57937 46.9942 7.18253 46.2813 7.40186C45.1299 7.84052 43.759 7.84052 42.5527 7.84052H38.1113V7.62119ZM41.6754 7.62119H42.6075C43.43 7.62119 44.0332 7.45669 44.5267 7.29219C44.9654 7.07286 45.3492 6.68903 45.3492 5.97621C45.3492 5.15372 45.1847 4.55055 44.1977 4.27639C43.759 4.16672 41.6754 4.22156 41.6754 4.22156V7.62119ZM41.6754 3.89256C42.6624 3.89256 43.7042 3.94739 44.1429 3.78289C44.746 3.50873 44.9654 3.23457 44.9654 2.46691C44.9654 1.80891 44.6912 1.47992 44.3074 1.26059C43.8687 1.04125 43.101 0.986421 42.3882 0.986421H41.6754V3.89256ZM13.4365 6.08587V1.04125H11.956V0.76709H16.891V1.04125H15.4653V6.03104C15.4653 6.52454 15.6846 6.85353 16.1233 7.1277C16.5071 7.45669 17.0006 7.62119 17.9328 7.62119C19.0294 7.62119 19.8519 7.40186 20.2906 6.9632C20.7841 6.57937 21.0034 6.08587 21.0034 5.59238V1.04125H19.5778V0.76709H23.0322V1.04125H21.6066V5.64721C21.6066 6.36004 21.2776 6.9632 20.6744 7.40186C19.9616 7.84052 19.2488 8.05985 17.9876 8.05985C16.7813 8.05985 15.4105 7.89536 14.6428 7.56636C13.8203 7.23736 13.4365 6.74387 13.4365 6.08587ZM26.4867 7.62119V1.04125H25.061V0.76709H30.5443C31.7507 0.821923 32.3538 0.76709 33.1763 1.09609C33.7246 1.31542 34.1085 1.80891 34.1085 2.46691C34.1085 3.83773 32.8473 4.00223 31.97 4.16672C32.7376 4.22156 33.1763 4.33122 33.6698 4.55055C34.1633 4.82472 34.3826 5.26338 34.4923 5.48271C34.602 5.86654 34.5471 6.3052 34.5471 6.68903C34.602 7.40186 34.9858 7.67602 35.5889 7.62119C35.7534 7.56636 35.9179 7.51153 36.0276 7.40186L36.1921 7.73086C35.8083 8.00502 35.3696 8.11469 34.931 8.05985C34.2181 8.05985 33.615 7.95019 33.1763 7.67602C32.7376 7.40186 32.4635 7.01803 32.3538 6.4697C32.3538 6.03104 32.3538 5.59238 32.2441 5.15372C31.97 4.44089 31.0378 4.33122 30.4347 4.33122H28.68V7.67602H30.1605V7.89536H24.9514V7.62119H26.4867ZM28.6252 3.94739H30.5443C31.4765 3.94739 32.0248 3.56356 32.0248 2.41207C32.0248 1.47992 31.2572 0.986421 30.4347 0.986421H28.6252V3.94739ZM76.9329 7.62119V1.04125H75.5072V0.76709H80.9905C82.1968 0.821923 82.8 0.76709 83.5676 1.09609C84.1708 1.31542 84.5546 1.80891 84.5546 2.46691C84.5546 3.83773 83.2935 4.00223 82.3613 4.16672C83.1838 4.22156 83.5677 4.33122 84.0611 4.55055C84.6095 4.82472 84.8288 5.26338 84.8836 5.48271C85.0481 5.86654 84.9933 6.3052 84.9933 6.68903C85.0481 7.40186 85.432 7.67602 86.0351 7.62119C86.1996 7.56636 86.3641 7.51153 86.4738 7.40186L86.6383 7.73086C86.3093 8.00502 85.8158 8.11469 85.3771 8.05985C84.6643 8.05985 84.116 7.95019 83.6773 7.67602C83.2387 7.40186 82.9097 7.01803 82.8548 6.4697C82.8 6.03104 82.8 5.59238 82.6355 5.15372C82.4162 4.44089 81.4292 4.33122 80.826 4.33122H79.1262V7.67602H80.6067V7.89536H75.3976V7.62119H76.9329ZM79.0714 3.94739H80.9357C81.8678 3.94739 82.471 3.56356 82.471 2.41207C82.471 1.47992 81.7033 0.986421 80.8809 0.986421H79.0714V3.94739ZM63.8827 7.62119V1.04125H62.457V0.76709H67.9403C69.1466 0.821923 69.7498 0.76709 70.5723 1.09609C71.1206 1.31542 71.5593 1.80891 71.5593 2.46691C71.5593 3.83773 70.2981 4.00223 69.366 4.16672C70.1336 4.22156 70.5723 4.33122 71.0658 4.55055C71.5593 4.82472 71.7786 5.26338 71.8883 5.48271C72.0528 5.86654 71.9431 6.3052 71.9431 6.68903C71.9979 7.40186 72.3818 7.67602 72.9849 7.62119C73.1494 7.56636 73.3139 7.51153 73.4236 7.40186L73.5881 7.73086C73.2591 8.00502 72.7656 8.11469 72.3269 8.05985C71.6141 8.05985 71.0109 7.95019 70.5723 7.67602C70.1336 7.40186 69.8595 7.01803 69.7498 6.4697C69.695 6.03104 69.695 5.59238 69.5853 5.15372C69.3111 4.44089 68.379 4.33122 67.7758 4.33122H66.0212V7.67602H67.5565V7.89536H62.3474V7.62119H63.8827ZM66.076 3.94739H67.9951C68.9273 3.94739 69.4756 3.56356 69.4756 2.41207C69.4756 1.47992 68.708 0.986421 67.8855 0.986421H66.076V3.94739ZM49.9003 7.62119H51.326V1.04125H49.9003V0.76709H58.9477V2.90557H58.6187C58.4542 2.35724 58.0704 1.58958 57.6317 1.31542C57.3027 1.15092 56.8092 1.04125 55.9868 1.04125H53.5193V4.05706C54.0676 4.05706 54.8353 4.11189 55.3288 3.89256C55.7126 3.72806 55.9868 3.2894 56.0416 2.85074H56.4254V5.70204H56.0416C55.9868 5.15372 55.6578 4.82472 55.2739 4.66022C54.8901 4.49572 54.1773 4.49572 53.4644 4.49572V7.67602H56.2061C57.4124 7.67602 57.7962 7.51153 58.2897 7.23736C58.7284 6.90837 59.1122 6.19554 59.2219 5.48271H59.5509V7.89536H49.9003V7.62119ZM90.2573 7.62119H91.9571V4.55055L88.6123 1.04125H87.1866V0.76709H92.6699V1.04125H91.0249L93.8214 4.16672L96.7275 1.04125H94.8084V0.76709H98.866V1.04125H97.3307L94.1504 4.55055V7.62119H95.8502V7.89536H90.3669V7.62119H90.2573Z" fill="#333333"/>
</svg>
