<svg width="73" height="21" viewBox="0 0 73 21" fill="none" xmlns="http://www.w3.org/2000/svg">
<path fill-rule="evenodd" clip-rule="evenodd" d="M50.5158 9.05414C50.1461 9.05414 49.8585 8.84875 49.8585 8.47904C49.8585 7.90394 50.4336 7.16453 51.0087 7.16453C51.3784 7.16453 51.5427 7.49316 51.5427 7.82178C51.5838 8.43796 51.173 9.05414 50.5158 9.05414Z" fill="#333333"/>
<path fill-rule="evenodd" clip-rule="evenodd" d="M13.9148 17.3109C11.6555 18.913 8.49248 20.8026 5.65807 20.8026C2.74149 20.8026 0.646484 18.8308 0.646484 15.9143C0.646484 14.3122 1.26266 12.7512 1.961 11.3545C3.31659 8.64334 5.32943 6.17864 7.67091 4.24797C9.47836 2.76915 11.6555 1.61893 13.9559 1.04382C14.5721 0.8795 15.2293 0.797363 15.8455 0.797363C16.6671 0.797363 17.5297 0.920619 18.2692 1.29029L19.3372 1.86539C19.5426 1.98865 19.7891 1.98865 19.9945 1.98865C20.7749 1.98865 21.4322 1.5368 22.0484 1.08489L22.2949 1.37247C20.8571 2.31725 20.2409 3.34421 19.6658 4.94628L19.4194 4.78196C19.5426 4.41229 19.6248 4.08364 19.6248 3.71393C19.6248 1.90646 17.3654 1.04382 15.8044 1.04382C14.6543 1.04382 13.504 1.41354 12.4771 1.90646C8.78002 3.71393 5.82238 7.0002 4.01493 10.6973C3.15227 12.4637 2.49502 14.4354 2.49502 16.4483C2.49502 18.7898 3.80953 20.3918 6.19208 20.3918C8.74682 20.3918 11.6507 18.4911 13.7728 17.1021L13.9559 16.9823C14.2845 16.2018 14.6543 15.5035 15.1883 14.8462C16.7903 12.7512 19.3372 10.6151 22.0895 10.6151C23.5272 10.6151 24.2255 11.3134 24.2666 12.7101L25.2114 11.1081H26.9367L22.8699 18.2147L22.8248 18.3043C22.6704 18.6097 22.5002 18.9462 22.5002 19.2827C22.5002 19.6935 22.911 19.9399 23.3218 19.9399C24.3019 19.9399 25.3568 19.1168 26.0938 18.5417L26.1973 18.4611C28.128 16.9823 29.8944 15.257 31.0446 13.0798L32.1537 11.067H34.0022L33.5093 11.9707C34.413 11.4367 35.481 10.9848 36.5491 10.9848C37.1653 10.9848 37.7404 11.2724 37.7404 11.9296C37.7404 12.4226 37.4939 12.7923 37.1242 13.1209C37.2063 13.162 37.2474 13.203 37.3296 13.203C37.64 13.203 37.9138 13.0197 38.151 12.861L38.1922 12.8334C39.7532 11.8475 41.191 10.4919 42.0947 8.93092L43.3681 6.75374H45.0934L42.9163 10.5741H45.4631L45.3399 10.9027H42.793L38.5209 18.2968C38.3565 18.5844 38.1922 18.913 38.1922 19.2416C38.1922 19.6524 38.6852 19.8578 39.0549 19.8578C39.8175 19.8578 40.5016 19.3871 41.1457 18.9441L41.191 18.913C42.3412 18.0914 43.4092 17.0644 44.3951 16.0785C45.1345 15.3392 45.8328 14.5997 46.449 13.7782C46.7776 13.3263 47.0652 12.8744 47.3527 12.4226L48.1332 11.1491H49.8174L45.6274 18.5432C45.4631 18.7898 45.381 19.1184 45.381 19.4059C45.381 19.7345 45.6274 20.0221 45.9561 20.0221C46.9419 20.0221 48.0511 19.2005 48.7905 18.5432L51.8303 15.8731C53.5145 13.9014 56.2668 10.7795 59.1012 10.7795C60.0049 10.7795 61.0319 11.2313 61.0319 12.2583C61.0319 13.0388 60.4978 13.7782 60.0049 14.3122C58.8958 15.5035 57.2526 16.2018 55.7327 16.6126C54.9523 16.818 54.1718 16.859 53.3913 16.859C53.1448 17.4342 52.8983 18.0093 52.8983 18.6254C52.8983 19.4881 53.6788 20.2275 54.5415 20.2275C56.6365 20.2275 59.7173 18.0503 61.2373 16.859C62.5107 15.8321 63.702 14.6408 64.77 13.4084C64.8314 13.3348 64.8937 13.2611 64.9563 13.1872C65.3122 12.7663 65.6756 12.3366 65.9202 11.8475L66.331 11.1081H68.0563L66.8239 13.4906C68.1795 12.2583 69.8227 11.0259 71.7123 11.0259C72.3285 11.0259 72.8214 11.3956 72.8214 12.0529C72.8214 12.628 72.2874 13.3263 71.6712 13.3263C71.3426 13.3263 71.0139 12.9977 71.0139 12.6691C71.0139 12.135 71.589 11.7653 72.082 11.7653C72.1641 11.7653 72.2874 11.7653 72.3695 11.8064C72.2052 11.4778 71.9587 11.3134 71.589 11.3134C70.6853 11.3134 69.8227 11.7653 69.0832 12.1761C67.399 13.162 66.1256 14.723 65.1397 16.3661L62.675 20.5561H60.9086L64.8932 13.696C64.0306 14.723 63.1269 15.6678 62.0999 16.5304C60.9497 17.5163 59.7173 18.379 58.4439 19.1594C57.1294 19.9399 55.6095 20.6794 54.0485 20.6794C52.5286 20.6794 51.132 19.8167 51.132 18.1736C51.132 17.716 51.2381 17.2938 51.3519 16.8414L51.3784 16.7358C51.2476 16.8563 51.1116 16.9832 50.9709 17.1144C49.4319 18.5496 47.3243 20.515 45.2166 20.515C44.354 20.515 43.6557 20.2275 43.6557 19.2827C43.6557 18.7555 43.9564 18.2583 44.2233 17.817C44.2684 17.7425 44.3125 17.6696 44.354 17.5985L45.7507 15.1338C44.354 16.6536 42.9163 18.1325 41.232 19.2827C40.2872 19.9399 39.2192 20.5561 38.069 20.5561C37.3296 20.5561 36.5491 20.1043 36.5491 19.2827C36.5491 18.6792 36.8866 18.1063 37.1903 17.5907C37.2164 17.5465 37.2422 17.5026 37.2675 17.4593C37.2886 17.4232 37.3093 17.3875 37.3296 17.352L40.9034 11.067C40.2462 11.6832 39.5889 12.2583 38.8905 12.7923C38.8395 12.8297 38.7878 12.868 38.7356 12.9067L38.7309 12.9102C38.1543 13.3381 37.5059 13.8192 36.7545 13.8192C36.2615 13.8192 35.8508 13.5317 35.8508 12.9977C35.8508 12.4637 36.3026 12.0529 36.8366 12.0529C37.0009 12.0529 37.1242 12.0939 37.2474 12.1761C37.2885 12.0939 37.3296 11.9707 37.3296 11.8475C37.3296 11.4778 36.8777 11.2724 36.5902 11.2724C35.6864 11.2724 34.7416 11.7242 34.0022 12.135C33.2628 12.5869 32.7699 13.3263 32.3591 14.0657L28.6209 20.5561H26.8135L29.4836 15.9143C27.7172 17.8039 24.8006 20.5972 22.0895 20.5972C21.35 20.5972 20.6928 20.2275 20.6928 19.447C20.6928 18.954 20.8982 18.5022 21.1036 18.0503C19.8301 19.4059 18.0638 20.8026 16.092 20.8026C14.8186 20.8026 13.7094 19.8989 13.7094 18.5844C13.6684 18.1325 13.7916 17.7217 13.9148 17.3109ZM23.9791 12.3815C23.9791 11.4367 23.2397 10.8616 22.3359 10.8616C21.309 10.8616 20.4874 11.3545 19.7069 11.9296C18.1048 13.0798 16.7493 14.723 15.8866 16.4893C15.558 17.1466 15.2704 17.8039 15.2704 18.5844C15.2704 19.4059 15.7634 20.1864 16.6671 20.1864C18.7621 20.1864 20.9803 17.8449 22.2127 16.2429C22.9521 15.2159 23.9791 13.655 23.9791 12.3815ZM54.0075 16.4893H53.5145L53.63 16.2964C54.6632 14.5688 56.7574 11.067 58.8136 11.067C59.3066 11.067 59.8406 11.2724 59.8406 11.8064C59.8406 12.7923 58.8958 14.0246 58.1975 14.6819C57.1294 15.7089 55.5274 16.4893 54.0075 16.4893Z" fill="#333333"/>
</svg>
