<svg width="95" height="15" viewBox="0 0 95 15" fill="none" xmlns="http://www.w3.org/2000/svg">
<path fill-rule="evenodd" clip-rule="evenodd" d="M91.543 0.598633H94.8379C94.4849 0.892827 94.2496 1.24586 94.2496 1.71657V13.1313C94.2496 13.602 94.4849 13.9551 94.8379 14.2493H91.543C91.896 13.9551 92.1314 13.602 92.1314 13.1313V1.71657C92.1314 1.18702 91.896 0.833988 91.543 0.598633Z" fill="#333333"/>
<path fill-rule="evenodd" clip-rule="evenodd" d="M14.5818 5.483C14.0522 4.30623 13.4638 3.18829 12.4636 2.3057C11.4045 1.42312 10.0512 0.83473 8.63906 0.83473C4.9322 0.83473 3.28472 4.18855 3.28472 7.48353C3.28472 10.6608 4.87337 13.897 8.46254 13.897C9.93351 13.897 11.3456 13.2497 12.2282 12.1318V9.54289C12.2282 8.83682 11.9929 8.36611 11.4633 7.95424H15.2879C14.876 8.42495 14.6406 8.89566 14.6406 9.54289V12.1318C12.8755 13.7793 10.7573 14.7207 8.34486 14.7207C4.04962 14.7796 0.578125 11.6611 0.578125 7.30701C0.578125 3.01177 3.99078 0.0698242 8.16834 0.0698242C10.7573 0.0698242 12.8755 1.01125 14.5818 2.95293V5.483Z" fill="#333333"/>
<path fill-rule="evenodd" clip-rule="evenodd" d="M23.8784 0.598633H27.4676C26.9969 0.951666 26.8204 1.36354 26.8204 1.95193V10.3071C26.8204 12.6018 29.527 13.7197 31.4686 13.7197C33.4103 13.7197 35.9404 12.6018 35.9404 10.3659V1.95193C35.9404 1.36354 35.8227 1.01051 35.4108 0.598633H37.3525C36.9407 1.01051 36.823 1.42238 36.823 1.95193V10.3659C36.823 13.3667 33.2926 14.5435 30.8214 14.5435C28.2913 14.5435 24.5845 13.4255 24.5845 10.3071V1.95193C24.5256 1.36354 24.2903 0.951666 23.8784 0.598633Z" fill="#333333"/>
<path fill-rule="evenodd" clip-rule="evenodd" d="M59.7114 5.54087C59.2407 4.36409 58.6523 3.30499 57.7109 2.4224C56.6518 1.48098 55.3573 0.892592 53.9452 0.892592C50.2384 0.892592 48.3555 4.12873 48.3555 7.42371C48.3555 10.7775 50.2972 13.9548 53.9452 13.9548C56.6518 13.9548 58.5935 12.072 59.7114 9.77727V12.2485C58.0639 13.896 55.8869 14.7786 53.4745 14.7786C49.0616 14.7786 45.7666 11.9543 45.7666 7.42371C45.8254 2.95195 49.0027 0.0688477 53.298 0.0688477C55.7104 0.0688477 58.0051 0.892592 59.7114 2.54008V5.54087Z" fill="#333333"/>
<path fill-rule="evenodd" clip-rule="evenodd" d="M82.7761 5.54111C82.3054 4.36433 81.717 3.30523 80.7756 2.42265C79.7165 1.48122 78.422 0.892835 77.0099 0.892835C73.3031 0.892835 71.479 4.12897 71.479 7.42395C71.479 10.7778 73.4207 13.9551 77.0687 13.9551C79.7753 13.9551 81.717 12.0722 82.835 9.77751V12.2487C81.1286 13.8962 79.0104 14.7788 76.598 14.7788C72.1851 14.7788 68.8901 11.9545 68.8901 7.42395C68.8901 3.01104 72.0674 0.12793 76.3627 0.12793C78.7751 0.12793 81.0698 0.951675 82.7761 2.59916V5.54111Z" fill="#333333"/>
</svg>
