<svg width="70" height="12" viewBox="0 0 70 12" fill="none" xmlns="http://www.w3.org/2000/svg">
<path fill-rule="evenodd" clip-rule="evenodd" d="M0.241211 1.01665L1.28514 2.14442V10.4407L0.515243 11.5296L5.26514 11.5425L4.40389 10.5444L4.31255 7.56293L8.8928 7.58885C10.3021 7.13515 11.7245 6.18886 11.8028 4.27034C11.7767 2.41664 10.6022 1.23702 9.23208 0.990723L0.241211 1.01665ZM4.15596 1.54813V6.87589L7.67923 6.90182C8.47523 6.2796 9.08854 5.81293 9.06244 4.32219C9.04939 3.11664 8.78841 2.05368 7.60093 1.54813H4.15596Z" fill="#333333"/>
<path fill-rule="evenodd" clip-rule="evenodd" d="M13.9951 0.964867L15.039 2.09264V10.3889L14.2691 11.4778L19.019 11.4908L18.1578 10.4926L18.0665 7.51114H18.0795L22.986 11.5297L27.0573 11.5037L23.3383 8.41855H20.2326L19.1365 7.52411L22.6337 7.53707C24.0169 7.09633 25.4523 6.15004 25.5175 4.23152C25.4914 2.37783 24.317 1.18524 22.9468 0.951904L13.9951 0.964867ZM17.9099 1.48338V6.81115L21.4331 6.83707C22.2291 6.21485 22.8424 5.74819 22.8163 4.25745C22.8033 3.0519 22.5423 1.98894 21.3548 1.48338H17.9099Z" fill="#333333"/>
<path fill-rule="evenodd" clip-rule="evenodd" d="M31.0111 0.951904H35.1086L40.4457 10.4408C40.6806 11.1797 41.3722 11.0889 41.8289 11.4H36.6614L37.4313 11.1667L37.3791 10.4537L36.0481 8.40559L31.507 8.43151L30.5414 10.4019C30.5153 10.6222 30.2543 10.8037 30.45 11.0759L30.8154 11.413L28.584 11.3611L29.5496 11.0759L33.2164 3.67412V3.16856L31.6766 1.21116L31.0111 0.951904ZM31.8071 7.7704L33.6862 4.34819L35.6436 7.74448L31.8071 7.7704Z" fill="#333333"/>
<path fill-rule="evenodd" clip-rule="evenodd" d="M58.7406 0.964844H62.8381L68.1752 10.4667C68.41 11.2056 69.1016 11.1148 69.5584 11.4259H64.3909L65.1608 11.1926L65.1086 10.4796L63.7776 8.44445L59.2365 8.47038L58.2708 10.4407C58.2448 10.6611 57.9838 10.8426 58.1795 11.1148L58.5449 11.4519L56.3135 11.4L57.2791 11.1148L60.9459 3.71298V3.20743L59.3931 1.2241L58.7406 0.964844ZM59.5366 7.78334L61.4157 4.36113L63.3731 7.75742L59.5366 7.78334Z" fill="#333333"/>
<path fill-rule="evenodd" clip-rule="evenodd" d="M43.2512 0.848145L50.5587 0.887033C52.9076 1.41851 54.4082 2.79258 54.8649 5.19072L54.8519 7.07035C54.4213 9.20923 53.012 10.687 50.5457 11.4389L43.2251 11.4518V11.2314C44.3343 11.1537 44.4256 11.024 44.4256 10.4018V1.85925C44.4126 1.39259 44.3212 1.09444 43.2381 1.06851L43.2512 0.848145ZM47.4008 1.57407L47.3878 10.8166C48.3534 10.8166 49.1886 10.9074 49.6583 10.674C50.7284 10.2074 51.2242 9.48145 51.2764 8.80738L51.2503 3.36295C51.2503 2.49444 50.2586 1.87222 49.6975 1.71666C49.2799 1.56111 48.4709 1.56111 47.4008 1.57407Z" fill="#333333"/>
</svg>
