<svg width="0" height="0" class="hidden">
  <symbol fill="none" xmlns="http://www.w3.org/2000/svg" viewBox="0 0 24 24" id="arrow_right">
    <path d="M14.2827 5L20.9998 12L14.2827 19" stroke="#14142B"></path>
    <line x1="20.6279" y1="12.1089" x2="2.89487" y2="12.1089" stroke="#14142B"></line>
  </symbol>
  <symbol fill="none" xmlns="http://www.w3.org/2000/svg" viewBox="0 0 53 21" id="boss">
    <path d="M1.63086 20.3011V18.9795H2.86474V20.3011H3.51415V17.2778H2.86474V18.4673H1.63086V17.2778H0.981445V20.3011H1.63086Z" fill="#333333"></path>
    <path d="M9.22912 17.2778V18.9134C9.22912 19.4255 9.21288 19.8881 8.57971 19.8881C7.94653 19.8881 7.93029 19.4255 7.93029 18.9134V17.2778H7.26465V19.1777C7.26465 19.9872 7.84912 20.3672 8.57971 20.3672C9.31029 20.3672 9.89476 19.9707 9.89476 19.1777V17.2778H9.22912Z" fill="#333333"></path>
    <path d="M15.6582 19.1942V19.8054C15.4958 19.855 15.3335 19.9046 15.09 19.9046C14.473 19.9046 14.2133 19.475 14.2133 18.7977C14.2133 18.1203 14.4568 17.6908 15.025 17.6908C15.4147 17.6908 15.642 17.9386 15.642 18.2029H16.2914C16.2914 17.6082 15.7718 17.2117 14.9763 17.2117C14.3594 17.2117 13.5151 17.5916 13.5151 18.7811C13.5151 19.9872 14.3269 20.3506 15.0413 20.3506C15.6582 20.3506 16.0641 20.2185 16.2914 20.1193V18.682H15.0575V19.1776H15.6582V19.1942Z" fill="#333333"></path>
    <path d="M45.7582 18.1204C45.7582 17.5091 45.1575 17.1787 44.6055 17.1787C44.0535 17.1787 43.4365 17.5256 43.4365 18.1204C43.4365 18.5499 43.745 18.7812 44.1671 18.9134C44.297 18.9464 44.5243 19.029 44.6379 19.0621C45.0438 19.1777 45.1899 19.2934 45.1899 19.5412C45.1899 19.8716 44.8652 19.9873 44.6866 19.9873C44.1996 19.9873 44.021 19.7064 44.021 19.3595H43.3716C43.3716 20.0368 43.8586 20.4168 44.6704 20.4168C45.3036 20.4168 45.8718 20.0699 45.8718 19.4586C45.8718 18.9795 45.5146 18.7151 45.06 18.583C44.8977 18.5334 44.7516 18.5004 44.5892 18.4508C44.2321 18.3352 44.0697 18.236 44.0697 18.0213C44.0697 17.8065 44.2321 17.6248 44.573 17.6248C44.9302 17.6248 45.0925 17.8561 45.0925 18.1534H45.7582V18.1204Z" fill="#333333"></path>
    <path d="M52.1224 18.1204C52.1224 17.5091 51.5217 17.1787 50.9697 17.1787C50.4177 17.1787 49.8008 17.5256 49.8008 18.1204C49.8008 18.5499 50.1093 18.7812 50.5314 18.9134C50.6613 18.9464 50.8885 19.029 51.0022 19.0621C51.4081 19.1777 51.5542 19.2934 51.5542 19.5412C51.5542 19.8716 51.2295 19.9873 51.0509 19.9873C50.5638 19.9873 50.3853 19.7064 50.3853 19.3595H49.7358C49.7358 20.0368 50.2229 20.4168 51.0347 20.4168C51.6678 20.4168 52.2361 20.0699 52.2361 19.4586C52.2361 18.9795 51.8789 18.7151 51.4243 18.583C51.262 18.5334 51.1158 18.5004 50.9535 18.4508C50.5963 18.3352 50.434 18.236 50.434 18.0213C50.434 17.8065 50.5963 17.6248 50.9373 17.6248C51.2944 17.6248 51.4568 17.8561 51.4568 18.1534H52.1224V18.1204Z" fill="#333333"></path>
    <path d="M21.454 20.4004C22.4768 20.4004 22.9314 19.7065 22.9314 18.7978C22.9314 17.8892 22.4768 17.1953 21.454 17.1953C20.4312 17.1953 19.9766 17.8892 19.9766 18.7978C19.9766 19.7065 20.4312 20.4004 21.454 20.4004ZM21.454 17.6579C22.1034 17.6579 22.2333 18.2526 22.2333 18.7813C22.2333 19.31 22.1034 19.9047 21.454 19.9047C20.8046 19.9047 20.6747 19.31 20.6747 18.7813C20.6747 18.2692 20.8046 17.6579 21.454 17.6579Z" fill="#333333"></path>
    <path d="M31.6986 20.3343C32.2993 20.3343 32.8513 20.0369 32.8513 19.4752C32.8513 19.0126 32.4941 18.7483 32.137 18.7152C32.3805 18.6822 32.7052 18.4179 32.7052 18.0379C32.7052 17.4927 32.2993 17.2449 31.6661 17.2449H30.3511V20.3343H31.6986ZM31.0005 19.8552V18.963H31.585C31.8772 18.963 32.1207 19.0456 32.1207 19.3926C32.1207 19.723 31.861 19.8386 31.585 19.8386H31.0005V19.8552ZM31.0005 18.517V17.724H31.6012C31.861 17.724 32.0233 17.9057 32.0233 18.1205C32.0233 18.3518 31.8122 18.5005 31.5687 18.5005H31.0005V18.517Z" fill="#333333"></path>
    <path d="M38.0952 20.4168C39.118 20.4168 39.5889 19.7064 39.5889 18.7978C39.5889 17.8726 39.118 17.1787 38.0952 17.1787C37.0724 17.1787 36.6016 17.8891 36.6016 18.7978C36.6016 19.7064 37.0724 20.4168 38.0952 20.4168ZM38.0952 17.6413C38.7609 17.6413 38.8907 18.236 38.8907 18.7812C38.8907 19.3264 38.7609 19.9212 38.0952 19.9212C37.4296 19.9212 37.2997 19.3264 37.2997 18.7812C37.2997 18.2526 37.4296 17.6413 38.0952 17.6413Z" fill="#333333"></path>
    <path d="M40.8227 10.207C40.9526 11.76 40.287 14.6676 35.9521 14.8494C34.0364 14.932 31.6336 14.3207 30.6757 13.8746V10.1409H31.1465C31.2439 10.6035 32.1531 14.0564 35.319 14.2216C37.1535 14.3042 38.5498 13.5277 38.5823 11.9747C38.631 10.174 36.6665 9.54619 34.8968 8.83579C32.8999 8.02627 30.9679 7.21675 30.6919 5.01948C30.3997 2.44224 32.7213 0.691028 35.4001 0.806674C36.8775 0.872757 38.355 1.23622 39.4914 1.6988V4.85428H39.0206C38.7446 3.13611 37.738 1.51707 35.4326 1.36838C34.0851 1.28578 32.8674 1.79792 32.8674 3.2848C32.8674 4.77167 35.3027 5.38294 37.0724 6.09334C38.8583 6.82025 40.6117 7.8115 40.8227 10.207Z" fill="#333333"></path>
    <path d="M52.918 10.207C53.0479 11.76 52.3823 14.6676 48.0475 14.8494C46.1317 14.932 43.7289 14.3207 42.771 13.8746V10.1409H43.2418C43.3392 10.6035 44.2484 14.0564 47.4143 14.2216C49.2489 14.3042 50.6451 13.5277 50.6776 11.9747C50.7263 10.174 48.7618 9.54619 46.9922 8.83579C44.9952 8.02627 43.0632 7.21675 42.8035 5.01948C42.495 2.44224 44.8166 0.691028 47.4955 0.806674C48.9729 0.872757 50.4503 1.23622 51.5868 1.6988V4.85428H51.1159C50.8399 3.13611 49.8333 1.51707 47.5279 1.36838C46.1804 1.28578 44.9628 1.79792 44.9628 3.2848C44.9628 4.77167 47.398 5.38294 49.1677 6.09334C50.9536 6.82025 52.707 7.8115 52.918 10.207Z" fill="#333333"></path>
    <path d="M14.5381 7.86096C14.5381 3.89596 17.6877 0.690918 21.5842 0.690918C25.4807 0.690918 28.6303 3.89596 28.6303 7.86096C28.6303 11.826 25.4807 15.031 21.5842 15.031C17.6877 15.031 14.5381 11.8094 14.5381 7.86096ZM21.5842 14.4197C24.3442 14.3867 25.3021 10.8017 25.3021 7.84443C25.3021 4.87069 24.1007 1.25263 21.5842 1.25263C18.9378 1.23611 17.8663 4.88721 17.8663 7.84443C17.8663 10.8017 18.8242 14.4528 21.5842 14.4197Z" fill="#333333"></path>
    <path d="M1.53344 13.5276C1.53344 13.9241 1.07885 14.1223 0.656737 14.1223H0.332031V14.6345H7.50803C10.0407 14.6345 12.7358 13.445 12.7683 10.8017C12.8007 7.77834 9.76473 7.24967 8.80685 7.16707C10.3005 6.91926 12.0701 5.64715 11.989 3.82986C11.8916 1.89693 9.87838 0.988281 7.97885 0.988281L0.413208 1.0048V1.51695H0.802854C1.09509 1.51695 1.54968 1.59955 1.54968 2.02909V13.5276H1.53344ZM4.60191 14.0728V7.53053H6.37156C8.36849 7.53053 9.40755 8.96784 9.48873 10.6034C9.60238 12.5529 8.17367 14.0728 6.37156 14.0728H4.60191ZM4.60191 7.00186V1.51695H6.09556C7.55673 1.51695 8.75814 2.45863 8.82308 4.16028C8.88802 5.77932 7.68661 7.00186 6.17673 7.00186H4.60191Z" fill="#333333"></path>
  </symbol>
  <symbol fill="none" xmlns="http://www.w3.org/2000/svg" viewBox="0 0 99 9" id="burberry">
    <path fill-rule="evenodd" clip-rule="evenodd" d="M0.550781 7.62119H1.86677V1.04125H0.550781V0.76709C2.14093 0.76709 3.62142 0.76709 5.21157 0.76709C6.19856 0.76709 7.40488 0.821923 8.28221 1.15092C8.88537 1.42508 9.21437 1.97341 9.21437 2.52174C9.21437 3.07007 8.88537 3.34423 8.39187 3.72806C8.11771 3.89256 7.95321 3.94739 7.56938 4.05706C8.11771 4.11189 8.50154 4.22156 9.04987 4.55055C9.5982 4.93438 9.87236 5.48271 9.87236 5.97621C9.87236 6.57937 9.4337 7.18253 8.66604 7.40186C7.51455 7.84052 6.19856 7.84052 4.93741 7.84052H0.550781V7.62119ZM4.06008 7.62119H4.99224C5.81473 7.62119 6.41789 7.45669 6.91139 7.29219C7.35005 7.07286 7.73388 6.68903 7.73388 5.97621C7.73388 5.15372 7.51455 4.55055 6.58239 4.27639C6.14373 4.16672 4.00525 4.22156 4.00525 4.22156V7.62119H4.06008ZM4.06008 3.89256C5.04707 3.89256 6.14373 3.94739 6.52756 3.78289C7.13072 3.50873 7.35005 3.23457 7.35005 2.46691C7.35005 1.80891 7.13072 1.47992 6.74689 1.31542C6.30823 1.09609 5.54057 1.04125 4.82774 1.04125H4.06008V3.89256ZM38.1113 7.62119H39.4272V1.04125H38.1113V0.76709C39.7014 0.76709 41.2367 0.76709 42.772 0.76709C43.759 0.76709 44.9654 0.821923 45.8427 1.15092C46.5007 1.42508 46.7748 1.97341 46.7748 2.52174C46.7748 3.07007 46.4458 3.34423 45.9524 3.72806C45.6782 3.89256 45.5137 3.94739 45.1299 4.05706C45.6782 4.11189 46.062 4.22156 46.6652 4.55055C47.2135 4.93438 47.4328 5.48271 47.4328 5.97621C47.4328 6.57937 46.9942 7.18253 46.2813 7.40186C45.1299 7.84052 43.759 7.84052 42.5527 7.84052H38.1113V7.62119ZM41.6754 7.62119H42.6075C43.43 7.62119 44.0332 7.45669 44.5267 7.29219C44.9654 7.07286 45.3492 6.68903 45.3492 5.97621C45.3492 5.15372 45.1847 4.55055 44.1977 4.27639C43.759 4.16672 41.6754 4.22156 41.6754 4.22156V7.62119ZM41.6754 3.89256C42.6624 3.89256 43.7042 3.94739 44.1429 3.78289C44.746 3.50873 44.9654 3.23457 44.9654 2.46691C44.9654 1.80891 44.6912 1.47992 44.3074 1.26059C43.8687 1.04125 43.101 0.986421 42.3882 0.986421H41.6754V3.89256ZM13.4365 6.08587V1.04125H11.956V0.76709H16.891V1.04125H15.4653V6.03104C15.4653 6.52454 15.6846 6.85353 16.1233 7.1277C16.5071 7.45669 17.0006 7.62119 17.9328 7.62119C19.0294 7.62119 19.8519 7.40186 20.2906 6.9632C20.7841 6.57937 21.0034 6.08587 21.0034 5.59238V1.04125H19.5778V0.76709H23.0322V1.04125H21.6066V5.64721C21.6066 6.36004 21.2776 6.9632 20.6744 7.40186C19.9616 7.84052 19.2488 8.05985 17.9876 8.05985C16.7813 8.05985 15.4105 7.89536 14.6428 7.56636C13.8203 7.23736 13.4365 6.74387 13.4365 6.08587ZM26.4867 7.62119V1.04125H25.061V0.76709H30.5443C31.7507 0.821923 32.3538 0.76709 33.1763 1.09609C33.7246 1.31542 34.1085 1.80891 34.1085 2.46691C34.1085 3.83773 32.8473 4.00223 31.97 4.16672C32.7376 4.22156 33.1763 4.33122 33.6698 4.55055C34.1633 4.82472 34.3826 5.26338 34.4923 5.48271C34.602 5.86654 34.5471 6.3052 34.5471 6.68903C34.602 7.40186 34.9858 7.67602 35.5889 7.62119C35.7534 7.56636 35.9179 7.51153 36.0276 7.40186L36.1921 7.73086C35.8083 8.00502 35.3696 8.11469 34.931 8.05985C34.2181 8.05985 33.615 7.95019 33.1763 7.67602C32.7376 7.40186 32.4635 7.01803 32.3538 6.4697C32.3538 6.03104 32.3538 5.59238 32.2441 5.15372C31.97 4.44089 31.0378 4.33122 30.4347 4.33122H28.68V7.67602H30.1605V7.89536H24.9514V7.62119H26.4867ZM28.6252 3.94739H30.5443C31.4765 3.94739 32.0248 3.56356 32.0248 2.41207C32.0248 1.47992 31.2572 0.986421 30.4347 0.986421H28.6252V3.94739ZM76.9329 7.62119V1.04125H75.5072V0.76709H80.9905C82.1968 0.821923 82.8 0.76709 83.5676 1.09609C84.1708 1.31542 84.5546 1.80891 84.5546 2.46691C84.5546 3.83773 83.2935 4.00223 82.3613 4.16672C83.1838 4.22156 83.5677 4.33122 84.0611 4.55055C84.6095 4.82472 84.8288 5.26338 84.8836 5.48271C85.0481 5.86654 84.9933 6.3052 84.9933 6.68903C85.0481 7.40186 85.432 7.67602 86.0351 7.62119C86.1996 7.56636 86.3641 7.51153 86.4738 7.40186L86.6383 7.73086C86.3093 8.00502 85.8158 8.11469 85.3771 8.05985C84.6643 8.05985 84.116 7.95019 83.6773 7.67602C83.2387 7.40186 82.9097 7.01803 82.8548 6.4697C82.8 6.03104 82.8 5.59238 82.6355 5.15372C82.4162 4.44089 81.4292 4.33122 80.826 4.33122H79.1262V7.67602H80.6067V7.89536H75.3976V7.62119H76.9329ZM79.0714 3.94739H80.9357C81.8678 3.94739 82.471 3.56356 82.471 2.41207C82.471 1.47992 81.7033 0.986421 80.8809 0.986421H79.0714V3.94739ZM63.8827 7.62119V1.04125H62.457V0.76709H67.9403C69.1466 0.821923 69.7498 0.76709 70.5723 1.09609C71.1206 1.31542 71.5593 1.80891 71.5593 2.46691C71.5593 3.83773 70.2981 4.00223 69.366 4.16672C70.1336 4.22156 70.5723 4.33122 71.0658 4.55055C71.5593 4.82472 71.7786 5.26338 71.8883 5.48271C72.0528 5.86654 71.9431 6.3052 71.9431 6.68903C71.9979 7.40186 72.3818 7.67602 72.9849 7.62119C73.1494 7.56636 73.3139 7.51153 73.4236 7.40186L73.5881 7.73086C73.2591 8.00502 72.7656 8.11469 72.3269 8.05985C71.6141 8.05985 71.0109 7.95019 70.5723 7.67602C70.1336 7.40186 69.8595 7.01803 69.7498 6.4697C69.695 6.03104 69.695 5.59238 69.5853 5.15372C69.3111 4.44089 68.379 4.33122 67.7758 4.33122H66.0212V7.67602H67.5565V7.89536H62.3474V7.62119H63.8827ZM66.076 3.94739H67.9951C68.9273 3.94739 69.4756 3.56356 69.4756 2.41207C69.4756 1.47992 68.708 0.986421 67.8855 0.986421H66.076V3.94739ZM49.9003 7.62119H51.326V1.04125H49.9003V0.76709H58.9477V2.90557H58.6187C58.4542 2.35724 58.0704 1.58958 57.6317 1.31542C57.3027 1.15092 56.8092 1.04125 55.9868 1.04125H53.5193V4.05706C54.0676 4.05706 54.8353 4.11189 55.3288 3.89256C55.7126 3.72806 55.9868 3.2894 56.0416 2.85074H56.4254V5.70204H56.0416C55.9868 5.15372 55.6578 4.82472 55.2739 4.66022C54.8901 4.49572 54.1773 4.49572 53.4644 4.49572V7.67602H56.2061C57.4124 7.67602 57.7962 7.51153 58.2897 7.23736C58.7284 6.90837 59.1122 6.19554 59.2219 5.48271H59.5509V7.89536H49.9003V7.62119ZM90.2573 7.62119H91.9571V4.55055L88.6123 1.04125H87.1866V0.76709H92.6699V1.04125H91.0249L93.8214 4.16672L96.7275 1.04125H94.8084V0.76709H98.866V1.04125H97.3307L94.1504 4.55055V7.62119H95.8502V7.89536H90.3669V7.62119H90.2573Z" fill="#333333"></path>
  </symbol>
  <symbol fill="none" xmlns="http://www.w3.org/2000/svg" viewBox="0 0 24 24" id="cart">
    <path d="M3.49594 23.28L4.31166 6.7207H20.659L21.4747 23.28H3.49594Z" stroke="#14142B"></path>
    <path d="M8.1604 10.1491L8.1604 5.55139C8.1604 4.40438 8.61605 3.30434 9.42711 2.49328C10.2382 1.68221 11.3382 1.22656 12.4852 1.22656C13.6322 1.22656 14.7323 1.68221 15.5433 2.49328C16.3544 3.30434 16.8101 4.40438 16.8101 5.55139V10.1491" stroke="#14142B"></path>
  </symbol>
  <symbol fill="none" xmlns="http://www.w3.org/2000/svg" viewBox="0 0 73 21" id="cartier">
    <path fill-rule="evenodd" clip-rule="evenodd" d="M50.5158 9.05414C50.1461 9.05414 49.8585 8.84875 49.8585 8.47904C49.8585 7.90394 50.4336 7.16453 51.0087 7.16453C51.3784 7.16453 51.5427 7.49316 51.5427 7.82178C51.5838 8.43796 51.173 9.05414 50.5158 9.05414Z" fill="#333333"></path>
    <path fill-rule="evenodd" clip-rule="evenodd" d="M13.9148 17.3109C11.6555 18.913 8.49248 20.8026 5.65807 20.8026C2.74149 20.8026 0.646484 18.8308 0.646484 15.9143C0.646484 14.3122 1.26266 12.7512 1.961 11.3545C3.31659 8.64334 5.32943 6.17864 7.67091 4.24797C9.47836 2.76915 11.6555 1.61893 13.9559 1.04382C14.5721 0.8795 15.2293 0.797363 15.8455 0.797363C16.6671 0.797363 17.5297 0.920619 18.2692 1.29029L19.3372 1.86539C19.5426 1.98865 19.7891 1.98865 19.9945 1.98865C20.7749 1.98865 21.4322 1.5368 22.0484 1.08489L22.2949 1.37247C20.8571 2.31725 20.2409 3.34421 19.6658 4.94628L19.4194 4.78196C19.5426 4.41229 19.6248 4.08364 19.6248 3.71393C19.6248 1.90646 17.3654 1.04382 15.8044 1.04382C14.6543 1.04382 13.504 1.41354 12.4771 1.90646C8.78002 3.71393 5.82238 7.0002 4.01493 10.6973C3.15227 12.4637 2.49502 14.4354 2.49502 16.4483C2.49502 18.7898 3.80953 20.3918 6.19208 20.3918C8.74682 20.3918 11.6507 18.4911 13.7728 17.1021L13.9559 16.9823C14.2845 16.2018 14.6543 15.5035 15.1883 14.8462C16.7903 12.7512 19.3372 10.6151 22.0895 10.6151C23.5272 10.6151 24.2255 11.3134 24.2666 12.7101L25.2114 11.1081H26.9367L22.8699 18.2147L22.8248 18.3043C22.6704 18.6097 22.5002 18.9462 22.5002 19.2827C22.5002 19.6935 22.911 19.9399 23.3218 19.9399C24.3019 19.9399 25.3568 19.1168 26.0938 18.5417L26.1973 18.4611C28.128 16.9823 29.8944 15.257 31.0446 13.0798L32.1537 11.067H34.0022L33.5093 11.9707C34.413 11.4367 35.481 10.9848 36.5491 10.9848C37.1653 10.9848 37.7404 11.2724 37.7404 11.9296C37.7404 12.4226 37.4939 12.7923 37.1242 13.1209C37.2063 13.162 37.2474 13.203 37.3296 13.203C37.64 13.203 37.9138 13.0197 38.151 12.861L38.1922 12.8334C39.7532 11.8475 41.191 10.4919 42.0947 8.93092L43.3681 6.75374H45.0934L42.9163 10.5741H45.4631L45.3399 10.9027H42.793L38.5209 18.2968C38.3565 18.5844 38.1922 18.913 38.1922 19.2416C38.1922 19.6524 38.6852 19.8578 39.0549 19.8578C39.8175 19.8578 40.5016 19.3871 41.1457 18.9441L41.191 18.913C42.3412 18.0914 43.4092 17.0644 44.3951 16.0785C45.1345 15.3392 45.8328 14.5997 46.449 13.7782C46.7776 13.3263 47.0652 12.8744 47.3527 12.4226L48.1332 11.1491H49.8174L45.6274 18.5432C45.4631 18.7898 45.381 19.1184 45.381 19.4059C45.381 19.7345 45.6274 20.0221 45.9561 20.0221C46.9419 20.0221 48.0511 19.2005 48.7905 18.5432L51.8303 15.8731C53.5145 13.9014 56.2668 10.7795 59.1012 10.7795C60.0049 10.7795 61.0319 11.2313 61.0319 12.2583C61.0319 13.0388 60.4978 13.7782 60.0049 14.3122C58.8958 15.5035 57.2526 16.2018 55.7327 16.6126C54.9523 16.818 54.1718 16.859 53.3913 16.859C53.1448 17.4342 52.8983 18.0093 52.8983 18.6254C52.8983 19.4881 53.6788 20.2275 54.5415 20.2275C56.6365 20.2275 59.7173 18.0503 61.2373 16.859C62.5107 15.8321 63.702 14.6408 64.77 13.4084C64.8314 13.3348 64.8937 13.2611 64.9563 13.1872C65.3122 12.7663 65.6756 12.3366 65.9202 11.8475L66.331 11.1081H68.0563L66.8239 13.4906C68.1795 12.2583 69.8227 11.0259 71.7123 11.0259C72.3285 11.0259 72.8214 11.3956 72.8214 12.0529C72.8214 12.628 72.2874 13.3263 71.6712 13.3263C71.3426 13.3263 71.0139 12.9977 71.0139 12.6691C71.0139 12.135 71.589 11.7653 72.082 11.7653C72.1641 11.7653 72.2874 11.7653 72.3695 11.8064C72.2052 11.4778 71.9587 11.3134 71.589 11.3134C70.6853 11.3134 69.8227 11.7653 69.0832 12.1761C67.399 13.162 66.1256 14.723 65.1397 16.3661L62.675 20.5561H60.9086L64.8932 13.696C64.0306 14.723 63.1269 15.6678 62.0999 16.5304C60.9497 17.5163 59.7173 18.379 58.4439 19.1594C57.1294 19.9399 55.6095 20.6794 54.0485 20.6794C52.5286 20.6794 51.132 19.8167 51.132 18.1736C51.132 17.716 51.2381 17.2938 51.3519 16.8414L51.3784 16.7358C51.2476 16.8563 51.1116 16.9832 50.9709 17.1144C49.4319 18.5496 47.3243 20.515 45.2166 20.515C44.354 20.515 43.6557 20.2275 43.6557 19.2827C43.6557 18.7555 43.9564 18.2583 44.2233 17.817C44.2684 17.7425 44.3125 17.6696 44.354 17.5985L45.7507 15.1338C44.354 16.6536 42.9163 18.1325 41.232 19.2827C40.2872 19.9399 39.2192 20.5561 38.069 20.5561C37.3296 20.5561 36.5491 20.1043 36.5491 19.2827C36.5491 18.6792 36.8866 18.1063 37.1903 17.5907C37.2164 17.5465 37.2422 17.5026 37.2675 17.4593C37.2886 17.4232 37.3093 17.3875 37.3296 17.352L40.9034 11.067C40.2462 11.6832 39.5889 12.2583 38.8905 12.7923C38.8395 12.8297 38.7878 12.868 38.7356 12.9067L38.7309 12.9102C38.1543 13.3381 37.5059 13.8192 36.7545 13.8192C36.2615 13.8192 35.8508 13.5317 35.8508 12.9977C35.8508 12.4637 36.3026 12.0529 36.8366 12.0529C37.0009 12.0529 37.1242 12.0939 37.2474 12.1761C37.2885 12.0939 37.3296 11.9707 37.3296 11.8475C37.3296 11.4778 36.8777 11.2724 36.5902 11.2724C35.6864 11.2724 34.7416 11.7242 34.0022 12.135C33.2628 12.5869 32.7699 13.3263 32.3591 14.0657L28.6209 20.5561H26.8135L29.4836 15.9143C27.7172 17.8039 24.8006 20.5972 22.0895 20.5972C21.35 20.5972 20.6928 20.2275 20.6928 19.447C20.6928 18.954 20.8982 18.5022 21.1036 18.0503C19.8301 19.4059 18.0638 20.8026 16.092 20.8026C14.8186 20.8026 13.7094 19.8989 13.7094 18.5844C13.6684 18.1325 13.7916 17.7217 13.9148 17.3109ZM23.9791 12.3815C23.9791 11.4367 23.2397 10.8616 22.3359 10.8616C21.309 10.8616 20.4874 11.3545 19.7069 11.9296C18.1048 13.0798 16.7493 14.723 15.8866 16.4893C15.558 17.1466 15.2704 17.8039 15.2704 18.5844C15.2704 19.4059 15.7634 20.1864 16.6671 20.1864C18.7621 20.1864 20.9803 17.8449 22.2127 16.2429C22.9521 15.2159 23.9791 13.655 23.9791 12.3815ZM54.0075 16.4893H53.5145L53.63 16.2964C54.6632 14.5688 56.7574 11.067 58.8136 11.067C59.3066 11.067 59.8406 11.2724 59.8406 11.8064C59.8406 12.7923 58.8958 14.0246 58.1975 14.6819C57.1294 15.7089 55.5274 16.4893 54.0075 16.4893Z" fill="#333333"></path>
  </symbol>
  <symbol fill="none" xmlns="http://www.w3.org/2000/svg" viewBox="0 0 95 15" id="gucci">
    <path fill-rule="evenodd" clip-rule="evenodd" d="M91.543 0.598633H94.8379C94.4849 0.892827 94.2496 1.24586 94.2496 1.71657V13.1313C94.2496 13.602 94.4849 13.9551 94.8379 14.2493H91.543C91.896 13.9551 92.1314 13.602 92.1314 13.1313V1.71657C92.1314 1.18702 91.896 0.833988 91.543 0.598633Z" fill="#333333"></path>
    <path fill-rule="evenodd" clip-rule="evenodd" d="M14.5818 5.483C14.0522 4.30623 13.4638 3.18829 12.4636 2.3057C11.4045 1.42312 10.0512 0.83473 8.63906 0.83473C4.9322 0.83473 3.28472 4.18855 3.28472 7.48353C3.28472 10.6608 4.87337 13.897 8.46254 13.897C9.93351 13.897 11.3456 13.2497 12.2282 12.1318V9.54289C12.2282 8.83682 11.9929 8.36611 11.4633 7.95424H15.2879C14.876 8.42495 14.6406 8.89566 14.6406 9.54289V12.1318C12.8755 13.7793 10.7573 14.7207 8.34486 14.7207C4.04962 14.7796 0.578125 11.6611 0.578125 7.30701C0.578125 3.01177 3.99078 0.0698242 8.16834 0.0698242C10.7573 0.0698242 12.8755 1.01125 14.5818 2.95293V5.483Z" fill="#333333"></path>
    <path fill-rule="evenodd" clip-rule="evenodd" d="M23.8784 0.598633H27.4676C26.9969 0.951666 26.8204 1.36354 26.8204 1.95193V10.3071C26.8204 12.6018 29.527 13.7197 31.4686 13.7197C33.4103 13.7197 35.9404 12.6018 35.9404 10.3659V1.95193C35.9404 1.36354 35.8227 1.01051 35.4108 0.598633H37.3525C36.9407 1.01051 36.823 1.42238 36.823 1.95193V10.3659C36.823 13.3667 33.2926 14.5435 30.8214 14.5435C28.2913 14.5435 24.5845 13.4255 24.5845 10.3071V1.95193C24.5256 1.36354 24.2903 0.951666 23.8784 0.598633Z" fill="#333333"></path>
    <path fill-rule="evenodd" clip-rule="evenodd" d="M59.7114 5.54087C59.2407 4.36409 58.6523 3.30499 57.7109 2.4224C56.6518 1.48098 55.3573 0.892592 53.9452 0.892592C50.2384 0.892592 48.3555 4.12873 48.3555 7.42371C48.3555 10.7775 50.2972 13.9548 53.9452 13.9548C56.6518 13.9548 58.5935 12.072 59.7114 9.77727V12.2485C58.0639 13.896 55.8869 14.7786 53.4745 14.7786C49.0616 14.7786 45.7666 11.9543 45.7666 7.42371C45.8254 2.95195 49.0027 0.0688477 53.298 0.0688477C55.7104 0.0688477 58.0051 0.892592 59.7114 2.54008V5.54087Z" fill="#333333"></path>
    <path fill-rule="evenodd" clip-rule="evenodd" d="M82.7761 5.54111C82.3054 4.36433 81.717 3.30523 80.7756 2.42265C79.7165 1.48122 78.422 0.892835 77.0099 0.892835C73.3031 0.892835 71.479 4.12897 71.479 7.42395C71.479 10.7778 73.4207 13.9551 77.0687 13.9551C79.7753 13.9551 81.717 12.0722 82.835 9.77751V12.2487C81.1286 13.8962 79.0104 14.7788 76.598 14.7788C72.1851 14.7788 68.8901 11.9545 68.8901 7.42395C68.8901 3.01104 72.0674 0.12793 76.3627 0.12793C78.7751 0.12793 81.0698 0.951675 82.7761 2.59916V5.54111Z" fill="#333333"></path>
  </symbol>
  <symbol fill="none" xmlns="http://www.w3.org/2000/svg" viewBox="0 0 126 10" id="devider">
    <path d="M63.0775 9.25429L67.6271 4.70469H125.479V4.4979H67.6271L63.0775 0L58.5796 4.4979H0.520508V4.70469H58.5796L63.0775 9.25429ZM63.0775 0.3102L67.4202 4.60129L63.0775 8.94409L58.7347 4.60129L63.0775 0.3102Z" fill="#555555"></path>
  </symbol>
  <symbol fill="none" xmlns="http://www.w3.org/2000/svg" viewBox="0 0 62 28" id="logo-dark">
    <path d="M10.9273 10.3267H10.1432C10.1432 11.5946 9.22566 12.9293 7.4239 12.9293C5.3719 12.9293 3.00293 11.3611 3.00293 6.67317C3.00293 1.98527 5.3719 0.417073 7.4239 0.417073C9.22566 0.417073 9.92634 1.75171 9.92634 3.01961H10.7104V0.200195C10.0431 0.100097 8.52498 0 7.4239 0C3.38663 0 0 1.66829 0 6.67317C0 11.678 3.38663 13.3463 7.4239 13.3463C8.52498 13.3463 10.26 13.2462 10.9273 13.1461V10.3267Z" fill="#2B2B2B"></path>
    <path d="M15.1 0H11.9302V0.417073C12.2639 0.417073 12.5976 0.750731 12.5976 1.08439V13.3463H15.7673V12.9293C15.4337 12.9293 15.1 12.5956 15.1 12.262V0Z" fill="#2B2B2B"></path>
    <path d="M24.7349 9.07551C24.7349 6.37288 23.5504 4.60449 20.6142 4.60449C19.5132 4.60449 18.8625 4.6879 17.4945 4.83805V7.85766H18.2786C18.2786 6.58976 18.8125 5.00488 20.6142 5.00488C21.4651 5.00488 22.0656 5.40527 22.1824 6.2561C22.5661 8.97541 16.5936 7.89102 16.5936 11.1275C16.5936 12.9293 17.995 13.5799 19.313 13.5799C20.6476 13.5799 21.7654 12.7291 22.2325 11.9783V13.3463H25.4022V12.9293C25.0686 12.9293 24.7349 12.5956 24.7349 12.262V9.07551ZM20.4474 12.5622C19.6633 12.5622 19.2462 12.0117 19.2462 11.1275C19.2462 9.40917 21.9322 8.59171 22.2325 7.55737C22.2492 8.29141 22.2325 9.02546 22.2325 9.07551V10.9607C22.0656 11.7114 21.2315 12.5622 20.4474 12.5622Z" fill="#2B2B2B"></path>
    <path d="M28.2404 6.23941C28.2404 5.28849 29.158 5.00488 29.6418 5.00488C31.4435 5.00488 32.1442 6.58976 32.1442 7.85766H32.9283V4.83805C31.5603 4.6879 30.7429 4.60449 29.6418 4.60449C27.4396 4.60449 26.2051 5.472 26.2051 7.02351C26.2051 10.1432 31.5603 9.34244 31.5603 11.578C31.5603 12.4621 30.7595 13.1795 29.8587 13.1795C28.0569 13.1795 26.8557 11.5946 26.8557 10.3267H26.0716V13.3463C27.4396 13.4965 28.7576 13.5799 29.8587 13.5799C32.1109 13.5799 33.5623 12.7458 33.5623 10.8606C33.5623 7.85766 28.2404 7.95776 28.2404 6.23941Z" fill="#2B2B2B"></path>
    <path d="M36.4027 6.23941C36.4027 5.28849 37.3202 5.00488 37.804 5.00488C39.6058 5.00488 40.3065 6.58976 40.3065 7.85766H41.0906V4.83805C39.7226 4.6879 38.9051 4.60449 37.804 4.60449C35.6019 4.60449 34.3674 5.472 34.3674 7.02351C34.3674 10.1432 39.7226 9.34244 39.7226 11.578C39.7226 12.4621 38.9218 13.1795 38.0209 13.1795C36.2192 13.1795 35.018 11.5946 35.018 10.3267H34.2339V13.3463C35.6019 13.4965 36.9198 13.5799 38.0209 13.5799C40.2731 13.5799 41.7245 12.7458 41.7245 10.8606C41.7245 7.85766 36.4027 7.95776 36.4027 6.23941Z" fill="#2B2B2B"></path>
    <path d="M50.6876 4.83805H49.6866L47.5345 10.0765L45.3157 4.83805H42.3461V5.25512C42.6797 5.25512 42.8966 5.62215 43.0134 5.92244L46.0997 13.5966L45.1655 15.8655C44.2813 17.8507 42.1793 18.3512 42.1793 15.3316H41.3952V18.3512C43.2303 18.6348 44.9653 18.2845 45.9996 15.8655L50.0202 5.92244C50.137 5.62215 50.3539 5.25512 50.6876 5.25512V4.83805Z" fill="#2B2B2B"></path>
    <path d="M20.1488 16.1383C20.1488 14.5368 21.6169 14.1197 22.3509 14.1197C25.0702 14.1197 26.5383 16.6722 26.5383 18.5907H27.3224V14.0196C25.2537 13.8027 24.0025 13.7026 22.3509 13.7026C19.0143 13.7026 17.1458 15.1374 17.1458 17.3228C17.1458 21.6938 25.3372 20.8429 25.3372 24.2129C25.3372 25.5642 24.3195 26.8321 22.6679 26.8321C19.9486 26.8321 17.7297 24.2462 17.7297 22.3277H16.9456V26.8988C19.0143 27.1157 20.9996 27.2492 22.6679 27.2492C26.0712 27.2492 28.2734 25.9813 28.2734 23.1285C28.2734 18.5907 20.1488 18.7409 20.1488 16.1383Z" fill="#2B2B2B"></path>
    <path d="M32.4406 19.8253C32.4406 19.4916 32.7742 19.158 33.1079 19.158H34.7261V18.7409H32.4406V15.5711H29.2708V15.9882C29.6045 15.9882 29.9381 16.3219 29.9381 16.6555V18.7409H29.2708V19.158C29.6045 19.158 29.9381 19.4916 29.9381 19.8253V25.0303C29.9381 26.8321 31.3395 27.4827 32.6574 27.4827C33.5416 27.4827 34.3424 27.1157 34.7261 26.6486V26.1147C34.4425 26.3316 34.0755 26.4651 33.7919 26.4651C32.9411 26.4651 32.4406 25.9813 32.4406 25.0303V19.8253Z" fill="#2B2B2B"></path>
    <path d="M39.8087 18.5073C37.1728 18.5073 35.2376 20.4926 35.2376 23.0117C35.2376 25.5308 37.1728 27.4994 39.8087 27.4994C42.4446 27.4994 44.3798 25.5308 44.3798 23.0117C44.3798 20.4926 42.4446 18.5073 39.8087 18.5073ZM39.8087 27.099C38.7577 27.099 37.9068 25.314 37.9068 23.0117C37.9068 20.7095 38.7577 18.9077 39.8087 18.9077C40.8597 18.9077 41.7105 20.7095 41.7105 23.0117C41.7105 25.314 40.8597 27.099 39.8087 27.099Z" fill="#2B2B2B"></path>
    <path d="M48.3904 18.7409H45.2206V19.158C45.5543 19.158 45.8879 19.4916 45.8879 19.8253V27.2492H49.0577V26.8321C48.724 26.8321 48.3904 26.4984 48.3904 26.1648V20.6261C49.2745 19.1746 51.0763 19.0078 51.0763 21.577H51.8604V18.5741C50.5424 18.3405 49.358 18.7242 48.3904 19.842V18.7409Z" fill="#2B2B2B"></path>
    <path d="M59.2883 24.1962C59.622 25.5475 58.7879 27.2492 57.4365 27.0823C56.519 26.9155 55.9684 26.2148 55.7182 25.0137C55.4179 22.6947 61.5572 24.7301 61.5572 21.2767C61.5572 19.4582 59.6887 18.5073 57.7869 18.5073C54.8006 18.5073 52.8654 20.3091 52.8654 22.995C52.8654 25.5141 54.8006 27.4827 57.4365 27.4827C59.8389 27.4827 61.7741 26.2816 61.7741 24.2129C61.7741 23.9626 61.7574 23.679 61.6573 23.3454L59.2883 24.1962ZM57.7702 18.9077C58.7545 18.9077 59.255 19.7752 59.255 20.7095C59.255 22.578 56.152 23.0284 55.5681 23.9793C55.5514 23.679 55.5347 23.3454 55.5347 22.995C55.5347 20.526 56.3521 18.9077 57.7702 18.9077Z" fill="#2B2B2B"></path>
  </symbol>
  <symbol fill="none" xmlns="http://www.w3.org/2000/svg" viewBox="0 0 62 28" id="logo-white">
    <path d="M10.9273 10.3267H10.1432C10.1432 11.5946 9.22566 12.9293 7.4239 12.9293C5.3719 12.9293 3.00293 11.3611 3.00293 6.67317C3.00293 1.98527 5.3719 0.417073 7.4239 0.417073C9.22566 0.417073 9.92634 1.75171 9.92634 3.01961H10.7104V0.200195C10.0431 0.100097 8.52498 0 7.4239 0C3.38663 0 0 1.66829 0 6.67317C0 11.678 3.38663 13.3463 7.4239 13.3463C8.52498 13.3463 10.26 13.2462 10.9273 13.1461V10.3267Z" fill="white"></path>
    <path d="M15.1 0H11.9302V0.417073C12.2639 0.417073 12.5976 0.750731 12.5976 1.08439V13.3463H15.7673V12.9293C15.4337 12.9293 15.1 12.5956 15.1 12.262V0Z" fill="white"></path>
    <path d="M24.7349 9.07551C24.7349 6.37288 23.5504 4.60449 20.6142 4.60449C19.5132 4.60449 18.8625 4.6879 17.4945 4.83805V7.85766H18.2786C18.2786 6.58976 18.8125 5.00488 20.6142 5.00488C21.4651 5.00488 22.0656 5.40527 22.1824 6.2561C22.5661 8.97541 16.5936 7.89102 16.5936 11.1275C16.5936 12.9293 17.995 13.5799 19.313 13.5799C20.6476 13.5799 21.7654 12.7291 22.2325 11.9783V13.3463H25.4022V12.9293C25.0686 12.9293 24.7349 12.5956 24.7349 12.262V9.07551ZM20.4474 12.5622C19.6633 12.5622 19.2462 12.0117 19.2462 11.1275C19.2462 9.40917 21.9322 8.59171 22.2325 7.55737C22.2492 8.29141 22.2325 9.02546 22.2325 9.07551V10.9607C22.0656 11.7114 21.2315 12.5622 20.4474 12.5622Z" fill="white"></path>
    <path d="M28.2404 6.23941C28.2404 5.28849 29.158 5.00488 29.6418 5.00488C31.4435 5.00488 32.1442 6.58976 32.1442 7.85766H32.9283V4.83805C31.5603 4.6879 30.7429 4.60449 29.6418 4.60449C27.4396 4.60449 26.2051 5.472 26.2051 7.02351C26.2051 10.1432 31.5603 9.34244 31.5603 11.578C31.5603 12.4621 30.7595 13.1795 29.8587 13.1795C28.0569 13.1795 26.8557 11.5946 26.8557 10.3267H26.0716V13.3463C27.4396 13.4965 28.7576 13.5799 29.8587 13.5799C32.1109 13.5799 33.5623 12.7458 33.5623 10.8606C33.5623 7.85766 28.2404 7.95776 28.2404 6.23941Z" fill="white"></path>
    <path d="M36.4027 6.23941C36.4027 5.28849 37.3202 5.00488 37.804 5.00488C39.6058 5.00488 40.3065 6.58976 40.3065 7.85766H41.0906V4.83805C39.7226 4.6879 38.9051 4.60449 37.804 4.60449C35.6019 4.60449 34.3674 5.472 34.3674 7.02351C34.3674 10.1432 39.7226 9.34244 39.7226 11.578C39.7226 12.4621 38.9218 13.1795 38.0209 13.1795C36.2192 13.1795 35.018 11.5946 35.018 10.3267H34.2339V13.3463C35.6019 13.4965 36.9198 13.5799 38.0209 13.5799C40.2731 13.5799 41.7245 12.7458 41.7245 10.8606C41.7245 7.85766 36.4027 7.95776 36.4027 6.23941Z" fill="white"></path>
    <path d="M50.6876 4.83805H49.6866L47.5345 10.0765L45.3157 4.83805H42.3461V5.25512C42.6797 5.25512 42.8966 5.62215 43.0134 5.92244L46.0997 13.5966L45.1655 15.8655C44.2813 17.8507 42.1793 18.3512 42.1793 15.3316H41.3952V18.3512C43.2303 18.6348 44.9653 18.2845 45.9996 15.8655L50.0202 5.92244C50.137 5.62215 50.3539 5.25512 50.6876 5.25512V4.83805Z" fill="white"></path>
    <path d="M20.1488 16.1383C20.1488 14.5368 21.6169 14.1197 22.3509 14.1197C25.0702 14.1197 26.5383 16.6722 26.5383 18.5907H27.3224V14.0196C25.2537 13.8027 24.0025 13.7026 22.3509 13.7026C19.0143 13.7026 17.1458 15.1374 17.1458 17.3228C17.1458 21.6938 25.3372 20.8429 25.3372 24.2129C25.3372 25.5642 24.3195 26.8321 22.6679 26.8321C19.9486 26.8321 17.7297 24.2462 17.7297 22.3277H16.9456V26.8988C19.0143 27.1157 20.9996 27.2492 22.6679 27.2492C26.0712 27.2492 28.2734 25.9813 28.2734 23.1285C28.2734 18.5907 20.1488 18.7409 20.1488 16.1383Z" fill="white"></path>
    <path d="M32.4406 19.8253C32.4406 19.4916 32.7742 19.158 33.1079 19.158H34.7261V18.7409H32.4406V15.5711H29.2708V15.9882C29.6045 15.9882 29.9381 16.3219 29.9381 16.6555V18.7409H29.2708V19.158C29.6045 19.158 29.9381 19.4916 29.9381 19.8253V25.0303C29.9381 26.8321 31.3395 27.4827 32.6574 27.4827C33.5416 27.4827 34.3424 27.1157 34.7261 26.6486V26.1147C34.4425 26.3316 34.0755 26.4651 33.7919 26.4651C32.9411 26.4651 32.4406 25.9813 32.4406 25.0303V19.8253Z" fill="white"></path>
    <path d="M39.8087 18.5073C37.1728 18.5073 35.2376 20.4926 35.2376 23.0117C35.2376 25.5308 37.1728 27.4994 39.8087 27.4994C42.4446 27.4994 44.3798 25.5308 44.3798 23.0117C44.3798 20.4926 42.4446 18.5073 39.8087 18.5073ZM39.8087 27.099C38.7577 27.099 37.9068 25.314 37.9068 23.0117C37.9068 20.7095 38.7577 18.9077 39.8087 18.9077C40.8597 18.9077 41.7105 20.7095 41.7105 23.0117C41.7105 25.314 40.8597 27.099 39.8087 27.099Z" fill="white"></path>
    <path d="M48.3904 18.7409H45.2206V19.158C45.5543 19.158 45.8879 19.4916 45.8879 19.8253V27.2492H49.0577V26.8321C48.724 26.8321 48.3904 26.4984 48.3904 26.1648V20.6261C49.2745 19.1746 51.0763 19.0078 51.0763 21.577H51.8604V18.5741C50.5425 18.3405 49.358 18.7242 48.3904 19.842V18.7409Z" fill="white"></path>
    <path d="M59.2883 24.1962C59.622 25.5475 58.7879 27.2492 57.4365 27.0823C56.519 26.9155 55.9684 26.2148 55.7182 25.0137C55.4179 22.6947 61.5572 24.7301 61.5572 21.2767C61.5572 19.4582 59.6887 18.5073 57.7869 18.5073C54.8006 18.5073 52.8654 20.3091 52.8654 22.995C52.8654 25.5141 54.8006 27.4827 57.4365 27.4827C59.8389 27.4827 61.7741 26.2816 61.7741 24.2129C61.7741 23.9626 61.7574 23.679 61.6573 23.3454L59.2883 24.1962ZM57.7702 18.9077C58.7545 18.9077 59.255 19.7752 59.255 20.7095C59.255 22.578 56.152 23.0284 55.5681 23.9793C55.5514 23.679 55.5347 23.3454 55.5347 22.995C55.5347 20.526 56.3521 18.9077 57.7702 18.9077Z" fill="white"></path>
  </symbol>
  <symbol fill="none" xmlns="http://www.w3.org/2000/svg" viewBox="0 0 70 12" id="prada">
    <path fill-rule="evenodd" clip-rule="evenodd" d="M0.241211 1.01665L1.28514 2.14442V10.4407L0.515243 11.5296L5.26514 11.5425L4.40389 10.5444L4.31255 7.56293L8.8928 7.58885C10.3021 7.13515 11.7245 6.18886 11.8028 4.27034C11.7767 2.41664 10.6022 1.23702 9.23208 0.990723L0.241211 1.01665ZM4.15596 1.54813V6.87589L7.67923 6.90182C8.47523 6.2796 9.08854 5.81293 9.06244 4.32219C9.04939 3.11664 8.78841 2.05368 7.60093 1.54813H4.15596Z" fill="#333333"></path>
    <path fill-rule="evenodd" clip-rule="evenodd" d="M13.9951 0.964867L15.039 2.09264V10.3889L14.2691 11.4778L19.019 11.4908L18.1578 10.4926L18.0665 7.51114H18.0795L22.986 11.5297L27.0573 11.5037L23.3383 8.41855H20.2326L19.1365 7.52411L22.6337 7.53707C24.0169 7.09633 25.4523 6.15004 25.5175 4.23152C25.4914 2.37783 24.317 1.18524 22.9468 0.951904L13.9951 0.964867ZM17.9099 1.48338V6.81115L21.4331 6.83707C22.2291 6.21485 22.8424 5.74819 22.8163 4.25745C22.8033 3.0519 22.5423 1.98894 21.3548 1.48338H17.9099Z" fill="#333333"></path>
    <path fill-rule="evenodd" clip-rule="evenodd" d="M31.0111 0.951904H35.1086L40.4457 10.4408C40.6806 11.1797 41.3722 11.0889 41.8289 11.4H36.6614L37.4313 11.1667L37.3791 10.4537L36.0481 8.40559L31.507 8.43151L30.5414 10.4019C30.5153 10.6222 30.2543 10.8037 30.45 11.0759L30.8154 11.413L28.584 11.3611L29.5496 11.0759L33.2164 3.67412V3.16856L31.6766 1.21116L31.0111 0.951904ZM31.8071 7.7704L33.6862 4.34819L35.6436 7.74448L31.8071 7.7704Z" fill="#333333"></path>
    <path fill-rule="evenodd" clip-rule="evenodd" d="M58.7406 0.964844H62.8381L68.1752 10.4667C68.41 11.2056 69.1016 11.1148 69.5584 11.4259H64.3909L65.1608 11.1926L65.1086 10.4796L63.7776 8.44445L59.2365 8.47038L58.2708 10.4407C58.2448 10.6611 57.9838 10.8426 58.1795 11.1148L58.5449 11.4519L56.3135 11.4L57.2791 11.1148L60.9459 3.71298V3.20743L59.3931 1.2241L58.7406 0.964844ZM59.5366 7.78334L61.4157 4.36113L63.3731 7.75742L59.5366 7.78334Z" fill="#333333"></path>
    <path fill-rule="evenodd" clip-rule="evenodd" d="M43.2512 0.848145L50.5587 0.887033C52.9076 1.41851 54.4082 2.79258 54.8649 5.19072L54.8519 7.07035C54.4213 9.20923 53.012 10.687 50.5457 11.4389L43.2251 11.4518V11.2314C44.3343 11.1537 44.4256 11.024 44.4256 10.4018V1.85925C44.4126 1.39259 44.3212 1.09444 43.2381 1.06851L43.2512 0.848145ZM47.4008 1.57407L47.3878 10.8166C48.3534 10.8166 49.1886 10.9074 49.6583 10.674C50.7284 10.2074 51.2242 9.48145 51.2764 8.80738L51.2503 3.36295C51.2503 2.49444 50.2586 1.87222 49.6975 1.71666C49.2799 1.56111 48.4709 1.56111 47.4008 1.57407Z" fill="#333333"></path>
  </symbol>
  <symbol fill="none" xmlns="http://www.w3.org/2000/svg" viewBox="0 0 24 24" id="search">
    <path d="M11 20C15.9706 20 20 15.9706 20 11C20 6.02944 15.9706 2 11 2C6.02944 2 2 6.02944 2 11C2 15.9706 6.02944 20 11 20Z" stroke="#14142B"></path>
    <path d="M22 21.9999L18.7823 18.7822" stroke="#14142B"></path>
  </symbol>
  <symbol fill="none" xmlns="http://www.w3.org/2000/svg" viewBox="0 0 100 14" id="tiffany">
    <path fill-rule="evenodd" clip-rule="evenodd" d="M23.0213 3.64844L23.413 5.99838H23.1891C22.8534 4.54366 21.5666 3.92819 20.1118 3.92819C19.888 3.92819 19.6642 3.92819 19.3845 4.0401V8.06858H19.944C21.119 8.06858 21.7904 7.62097 21.7904 6.6698H22.0142V9.97091H21.8463C21.7344 9.24355 21.5106 8.34833 19.9999 8.34833H19.4404V12.0971C19.4404 12.7125 19.7202 13.0482 20.6154 13.0482V13.272H16.6429V13.0482C17.5381 13.0482 17.8178 12.7125 17.8178 12.0971V4.82341C17.8178 4.2639 17.4821 3.87224 16.5869 3.87224V3.64844H23.0213Z" fill="#333333"></path>
    <path fill-rule="evenodd" clip-rule="evenodd" d="M31.0223 3.64844L31.4139 5.99838H31.1901C30.8544 4.54366 29.5675 3.92819 28.1128 3.92819C27.889 3.92819 27.6652 3.92819 27.3854 4.0401V8.06858H27.945C29.1199 8.06858 29.7913 7.62097 29.7913 6.6698H30.0151V9.97091H29.8473C29.7354 9.24355 29.5116 8.34833 28.0009 8.34833H27.4414V12.0971C27.4414 12.7125 27.7212 13.0482 28.6164 13.0482V13.272H24.6438V13.0482C25.5391 13.0482 25.8188 12.7125 25.8188 12.0971V4.82341C25.8188 4.2639 25.4831 3.87224 24.5879 3.87224V3.64844H31.0223Z" fill="#333333"></path>
    <path fill-rule="evenodd" clip-rule="evenodd" d="M14.6843 3.64844V3.87224C14.0129 3.87224 13.6212 4.20795 13.6212 4.82341V12.0411C13.6212 12.7125 14.0688 12.9923 14.6843 12.9923V13.2161H10.9355V12.9923C11.607 12.9363 11.9986 12.6566 11.9986 12.0411V4.82341C11.9986 4.20795 11.607 3.87224 10.9355 3.87224V3.64844H14.6843Z" fill="#333333"></path>
    <path fill-rule="evenodd" clip-rule="evenodd" d="M9.81672 1.0188L10.2084 3.92826H10.0405C9.48102 2.41758 8.41795 1.41046 6.45966 1.41046V11.6495C6.45966 12.7685 7.07512 13.1042 7.74653 13.1042V13.328H3.27044V13.1042C3.88591 13.1042 4.66922 12.7685 4.66922 11.6495V1.35451C2.65498 1.35451 1.70381 2.30567 0.976447 3.92826H0.808594L1.1443 1.0188H9.81672Z" fill="#333333"></path>
    <path fill-rule="evenodd" clip-rule="evenodd" d="M64.4811 10.1389C64.4811 11.6496 65.5442 12.7686 67.1108 12.7686C67.7822 12.7686 68.5655 12.4329 69.125 11.8174L65.9918 7.84488C65.2085 8.01273 64.4811 8.852 64.4811 10.1389ZM68.7334 4.15211C68.7334 2.92118 68.1739 2.30572 67.1108 2.30572C66.0477 2.30572 65.4323 2.92118 65.4323 3.9283C65.4323 5.10328 66.9989 6.66991 66.9989 6.66991C68.2298 5.99849 68.7334 5.27113 68.7334 4.15211ZM67.2227 6.94966L69.9084 10.3067C69.9084 10.3067 70.1881 9.74722 70.2441 9.24366C70.2441 8.6282 69.9084 8.40439 69.4048 8.29249V8.12464H72.3143C72.3143 8.12464 72.3702 8.29249 72.3143 8.29249C71.7547 8.40439 71.3631 8.57224 70.9714 8.852C70.6357 9.24366 70.4679 9.57936 70.1322 10.4746L71.3631 11.9853C71.9226 12.6007 72.594 12.9364 73.3773 12.9924V13.2162H70.1881V12.9924L69.2929 11.9293C68.5655 12.6567 67.3346 13.3281 66.1596 13.3281C64.2573 13.3281 63.0264 12.265 63.0264 10.8103C63.0264 9.18771 64.537 8.18059 65.712 7.39727C65.712 7.39727 64.4251 5.94254 64.4251 4.59972C64.4251 3.08904 65.6001 1.91406 67.1668 1.91406C68.5655 1.91406 69.6846 2.92118 69.6846 4.15211C69.6846 5.66279 68.062 6.27825 67.2227 6.94966Z" fill="#333333"></path>
    <path fill-rule="evenodd" clip-rule="evenodd" d="M86.5815 0.794922L86.6934 4.65555H86.4696C86.078 2.47346 84.6232 1.24253 82.8328 1.24253C80.6507 1.24253 79.14 3.76033 79.14 7.17335C79.14 11.3697 80.8186 13.1042 83.1125 13.1042C85.5184 13.1042 86.4696 10.8661 86.6934 9.29949H86.9172V10.978C86.5256 11.7054 85.2946 13.328 82.7768 13.328C79.5876 13.328 77.0698 10.6983 77.0698 7.17335C77.0698 3.98414 79.8674 1.01873 82.7768 1.01873C84.4554 1.01873 84.903 1.74609 85.5744 1.74609C86.078 1.74609 86.3018 1.41038 86.3018 0.794922H86.5815V0.794922Z" fill="#333333"></path>
    <path fill-rule="evenodd" clip-rule="evenodd" d="M98.2756 11.4817C98.7791 11.4817 99.1708 11.8733 99.1708 12.3769C99.1708 12.8805 98.7791 13.2162 98.2756 13.2162C97.772 13.2162 97.3804 12.8805 97.3804 12.3769C97.3804 11.8733 97.772 11.4817 98.2756 11.4817Z" fill="#333333"></path>
    <path fill-rule="evenodd" clip-rule="evenodd" d="M89.4913 8.29242C89.4913 11.2578 90.6663 13.1042 92.4567 13.1042C94.3031 13.1042 95.4781 11.4257 95.4781 8.29242C95.4781 5.43892 94.4709 3.87228 92.5127 3.81633C90.4984 3.76038 89.4913 5.66272 89.4913 8.29242ZM92.4567 3.59253C95.1983 3.59253 97.4923 5.66272 97.4923 8.46028C97.4923 11.1459 95.3102 13.2721 92.5127 13.2721C89.771 13.2721 87.4771 11.09 87.4771 8.46028C87.4771 5.83057 89.7151 3.59253 92.4567 3.59253Z" fill="#333333"></path>
    <path fill-rule="evenodd" clip-rule="evenodd" d="M34.7709 5.66258L36.3935 9.6351H33.1483L34.7709 5.66258ZM40.1422 13.0481C39.8065 13.0481 39.5268 12.7124 39.3589 12.4886C39.247 12.2648 35.4983 3.14478 35.4983 3.14478L32.0853 11.4815C31.6936 12.5446 31.1341 13.0481 30.4067 13.0481V13.2719H33.2043V13.0481C32.6448 12.9922 32.2531 12.7124 32.2531 12.3208C32.2531 11.9851 33.1483 9.85891 33.1483 9.85891H36.5054C36.5054 9.85891 37.4566 11.8731 37.4566 12.3208C37.5125 12.6565 36.953 13.0481 36.4495 13.0481V13.2719H40.1422V13.0481Z" fill="#333333"></path>
    <path fill-rule="evenodd" clip-rule="evenodd" d="M41.6527 11.5935C41.6527 12.4887 41.0932 12.8804 40.4777 13.0482V13.272H43.2753V13.0482C42.492 12.8804 42.0443 12.3209 42.0443 11.5935V5.32697L48.5906 13.4399V5.60673C48.5906 4.4877 49.2061 3.81629 49.9334 3.81629V3.64844H46.8002V3.81629C47.6954 4.09605 48.3109 4.59961 48.3109 5.66268V10.4745L42.8277 3.64844H40.2539V3.81629C41.3729 3.87224 41.6527 4.76746 41.6527 4.99126V11.5935Z" fill="#333333"></path>
    <path fill-rule="evenodd" clip-rule="evenodd" d="M50.2695 3.87224C50.6612 3.87224 50.7731 3.87224 51.0528 4.43175C51.0528 4.43175 54.0183 9.1876 54.0183 9.24355V12.0971C54.0183 12.7125 53.4587 13.0482 52.6754 13.1042V13.272H56.8158V13.1042C56.0884 13.0482 55.5849 12.7125 55.5849 12.0971V8.73999C55.5849 8.73999 57.4872 5.32697 57.6551 4.99126C58.1027 4.2639 58.7181 3.81629 59.5015 3.76034V3.64844H56.1444L56.2003 3.76034C57.2634 3.76034 57.5432 4.76746 57.1515 5.38292L55.3611 8.62809L53.2349 4.87936C52.8992 4.31985 53.3468 3.76034 54.1302 3.76034V3.64844H50.2695V3.87224Z" fill="#333333"></path>
  </symbol>
</svg>
