<svg width="100" height="14" viewBox="0 0 100 14" fill="none" xmlns="http://www.w3.org/2000/svg">
<path fill-rule="evenodd" clip-rule="evenodd" d="M23.0213 3.64844L23.413 5.99838H23.1891C22.8534 4.54366 21.5666 3.92819 20.1118 3.92819C19.888 3.92819 19.6642 3.92819 19.3845 4.0401V8.06858H19.944C21.119 8.06858 21.7904 7.62097 21.7904 6.6698H22.0142V9.97091H21.8463C21.7344 9.24355 21.5106 8.34833 19.9999 8.34833H19.4404V12.0971C19.4404 12.7125 19.7202 13.0482 20.6154 13.0482V13.272H16.6429V13.0482C17.5381 13.0482 17.8178 12.7125 17.8178 12.0971V4.82341C17.8178 4.2639 17.4821 3.87224 16.5869 3.87224V3.64844H23.0213Z" fill="#333333"/>
<path fill-rule="evenodd" clip-rule="evenodd" d="M31.0223 3.64844L31.4139 5.99838H31.1901C30.8544 4.54366 29.5675 3.92819 28.1128 3.92819C27.889 3.92819 27.6652 3.92819 27.3854 4.0401V8.06858H27.945C29.1199 8.06858 29.7913 7.62097 29.7913 6.6698H30.0151V9.97091H29.8473C29.7354 9.24355 29.5116 8.34833 28.0009 8.34833H27.4414V12.0971C27.4414 12.7125 27.7212 13.0482 28.6164 13.0482V13.272H24.6438V13.0482C25.5391 13.0482 25.8188 12.7125 25.8188 12.0971V4.82341C25.8188 4.2639 25.4831 3.87224 24.5879 3.87224V3.64844H31.0223Z" fill="#333333"/>
<path fill-rule="evenodd" clip-rule="evenodd" d="M14.6843 3.64844V3.87224C14.0129 3.87224 13.6212 4.20795 13.6212 4.82341V12.0411C13.6212 12.7125 14.0688 12.9923 14.6843 12.9923V13.2161H10.9355V12.9923C11.607 12.9363 11.9986 12.6566 11.9986 12.0411V4.82341C11.9986 4.20795 11.607 3.87224 10.9355 3.87224V3.64844H14.6843Z" fill="#333333"/>
<path fill-rule="evenodd" clip-rule="evenodd" d="M9.81672 1.0188L10.2084 3.92826H10.0405C9.48102 2.41758 8.41795 1.41046 6.45966 1.41046V11.6495C6.45966 12.7685 7.07512 13.1042 7.74653 13.1042V13.328H3.27044V13.1042C3.88591 13.1042 4.66922 12.7685 4.66922 11.6495V1.35451C2.65498 1.35451 1.70381 2.30567 0.976447 3.92826H0.808594L1.1443 1.0188H9.81672Z" fill="#333333"/>
<path fill-rule="evenodd" clip-rule="evenodd" d="M64.4811 10.1389C64.4811 11.6496 65.5442 12.7686 67.1108 12.7686C67.7822 12.7686 68.5655 12.4329 69.125 11.8174L65.9918 7.84488C65.2085 8.01273 64.4811 8.852 64.4811 10.1389ZM68.7334 4.15211C68.7334 2.92118 68.1739 2.30572 67.1108 2.30572C66.0477 2.30572 65.4323 2.92118 65.4323 3.9283C65.4323 5.10328 66.9989 6.66991 66.9989 6.66991C68.2298 5.99849 68.7334 5.27113 68.7334 4.15211ZM67.2227 6.94966L69.9084 10.3067C69.9084 10.3067 70.1881 9.74722 70.2441 9.24366C70.2441 8.6282 69.9084 8.40439 69.4048 8.29249V8.12464H72.3143C72.3143 8.12464 72.3702 8.29249 72.3143 8.29249C71.7547 8.40439 71.3631 8.57224 70.9714 8.852C70.6357 9.24366 70.4679 9.57936 70.1322 10.4746L71.3631 11.9853C71.9226 12.6007 72.594 12.9364 73.3773 12.9924V13.2162H70.1881V12.9924L69.2929 11.9293C68.5655 12.6567 67.3346 13.3281 66.1596 13.3281C64.2573 13.3281 63.0264 12.265 63.0264 10.8103C63.0264 9.18771 64.537 8.18059 65.712 7.39727C65.712 7.39727 64.4251 5.94254 64.4251 4.59972C64.4251 3.08904 65.6001 1.91406 67.1668 1.91406C68.5655 1.91406 69.6846 2.92118 69.6846 4.15211C69.6846 5.66279 68.062 6.27825 67.2227 6.94966Z" fill="#333333"/>
<path fill-rule="evenodd" clip-rule="evenodd" d="M86.5815 0.794922L86.6934 4.65555H86.4696C86.078 2.47346 84.6232 1.24253 82.8328 1.24253C80.6507 1.24253 79.14 3.76033 79.14 7.17335C79.14 11.3697 80.8186 13.1042 83.1125 13.1042C85.5184 13.1042 86.4696 10.8661 86.6934 9.29949H86.9172V10.978C86.5256 11.7054 85.2946 13.328 82.7768 13.328C79.5876 13.328 77.0698 10.6983 77.0698 7.17335C77.0698 3.98414 79.8674 1.01873 82.7768 1.01873C84.4554 1.01873 84.903 1.74609 85.5744 1.74609C86.078 1.74609 86.3018 1.41038 86.3018 0.794922H86.5815V0.794922Z" fill="#333333"/>
<path fill-rule="evenodd" clip-rule="evenodd" d="M98.2756 11.4817C98.7791 11.4817 99.1708 11.8733 99.1708 12.3769C99.1708 12.8805 98.7791 13.2162 98.2756 13.2162C97.772 13.2162 97.3804 12.8805 97.3804 12.3769C97.3804 11.8733 97.772 11.4817 98.2756 11.4817Z" fill="#333333"/>
<path fill-rule="evenodd" clip-rule="evenodd" d="M89.4913 8.29242C89.4913 11.2578 90.6663 13.1042 92.4567 13.1042C94.3031 13.1042 95.4781 11.4257 95.4781 8.29242C95.4781 5.43892 94.4709 3.87228 92.5127 3.81633C90.4984 3.76038 89.4913 5.66272 89.4913 8.29242ZM92.4567 3.59253C95.1983 3.59253 97.4923 5.66272 97.4923 8.46028C97.4923 11.1459 95.3102 13.2721 92.5127 13.2721C89.771 13.2721 87.4771 11.09 87.4771 8.46028C87.4771 5.83057 89.7151 3.59253 92.4567 3.59253Z" fill="#333333"/>
<path fill-rule="evenodd" clip-rule="evenodd" d="M34.7709 5.66258L36.3935 9.6351H33.1483L34.7709 5.66258ZM40.1422 13.0481C39.8065 13.0481 39.5268 12.7124 39.3589 12.4886C39.247 12.2648 35.4983 3.14478 35.4983 3.14478L32.0853 11.4815C31.6936 12.5446 31.1341 13.0481 30.4067 13.0481V13.2719H33.2043V13.0481C32.6448 12.9922 32.2531 12.7124 32.2531 12.3208C32.2531 11.9851 33.1483 9.85891 33.1483 9.85891H36.5054C36.5054 9.85891 37.4566 11.8731 37.4566 12.3208C37.5125 12.6565 36.953 13.0481 36.4495 13.0481V13.2719H40.1422V13.0481Z" fill="#333333"/>
<path fill-rule="evenodd" clip-rule="evenodd" d="M41.6527 11.5935C41.6527 12.4887 41.0932 12.8804 40.4777 13.0482V13.272H43.2753V13.0482C42.492 12.8804 42.0443 12.3209 42.0443 11.5935V5.32697L48.5906 13.4399V5.60673C48.5906 4.4877 49.2061 3.81629 49.9334 3.81629V3.64844H46.8002V3.81629C47.6954 4.09605 48.3109 4.59961 48.3109 5.66268V10.4745L42.8277 3.64844H40.2539V3.81629C41.3729 3.87224 41.6527 4.76746 41.6527 4.99126V11.5935Z" fill="#333333"/>
<path fill-rule="evenodd" clip-rule="evenodd" d="M50.2695 3.87224C50.6612 3.87224 50.7731 3.87224 51.0528 4.43175C51.0528 4.43175 54.0183 9.1876 54.0183 9.24355V12.0971C54.0183 12.7125 53.4587 13.0482 52.6754 13.1042V13.272H56.8158V13.1042C56.0884 13.0482 55.5849 12.7125 55.5849 12.0971V8.73999C55.5849 8.73999 57.4872 5.32697 57.6551 4.99126C58.1027 4.2639 58.7181 3.81629 59.5015 3.76034V3.64844H56.1444L56.2003 3.76034C57.2634 3.76034 57.5432 4.76746 57.1515 5.38292L55.3611 8.62809L53.2349 4.87936C52.8992 4.31985 53.3468 3.76034 54.1302 3.76034V3.64844H50.2695V3.87224Z" fill="#333333"/>
</svg>
